<svg id="Layer_1" data-name="Layer 1" xmlns="http://www.w3.org/2000/svg" viewBox="0 0 438.72 500"><defs><style>.cls-1{fill:#e1bf23;}</style></defs><title>Artboard 1</title><path class="cls-1" d="M219,240.67H21.69L120.36,196,219,150.67,318.36,196,417,240.67M53,457.33H385.69V500H53Z"/><path class="cls-1" d="M173.69,122.67h92v60.67h-92Zm-100,96.67H365v28H73.69Z"/><path class="cls-1" d="M219,219.33H47l86-44.66,86-45.33,86.67,45.33,86,44.66m-302,28H107V446H89.69Zm241.33,0h17.33V446H331ZM177,62.67h84V124H177Z"/><path class="cls-1" d="M73.69,445.33H365v54H73.69ZM208.36,0h22V22h-22Zm60,54h-98L165,62.67H273"/><path class="cls-1" d="M261,46H177l-4,8.67h92.66"/><path class="cls-1" d="M181.69,46.67a37.34,37.34,0,0,1,74.68,0M87,431.33h22.67v6H87Zm241.33,0H351v6H328.36ZM219,356.67H154.36L187,340l32-16.67L251.69,340l32,16.67"/><path class="cls-1" d="M83,437.33h30.66v8H83Zm81.33-190h17.33V446H164.36Zm92.67,0h17.33V446H257Z"/><path class="cls-1" d="M161.69,431.33h22.67v6H161.69Zm92.67,0H277v6H254.36Z"/><path class="cls-1" d="M157.69,437.33h30.67v8H157.69Zm92.67,0H281v8H250.36Zm74,0H355v8H324.36Z"/><path class="cls-1" d="M53,238V459.34H385.69V238ZM250.36,445.33h-62V368h62Zm-176.67,8H365M73.69,462H365M73.69,470H365M73.69,478H365M73.69,486H365M73.69,493.33H365m-146-274H99.69l60-31.33L219,157.33,279,188l59.34,31.33"/><path class="cls-1" d="M331,314.67V247.33h18M170.36,54.67l-5.33,8M256.37,44v2.66m-74.68,0A39.58,39.58,0,0,1,185,31.33M105,228h2v4.66c0-.67.67-.67.67-1.33l2-4h2L109,232l2.66,6.67h-2l-2-4.67-.67,1.33v3.33h-2Zm17.33,6.67h-2.66v2.66H123v2h-5.33V228H123v2h-3.33v2h2.66m6.67-4h2v8.66h3.33v2.67H129M140.36,228h2v8.66h3.33v2.67h-5.33m18-6c0,4-2,6-4,6-2.66,0-4-2.67-4-6s1.33-6,4-6q4,1,4,6m-6,0c0,2,.67,4,2,4s2-2,2-4-.67-4-2-4c-1.33.67-2,2-2,4m19.33,5.33c-.67,0-2,.67-2.67.67a5.1,5.1,0,0,1-3.33-1.33,7.16,7.16,0,0,1-1.33-4c0-4,2-6,4.67-6,1.33,0,2,0,2,.66l-.67,2c-.66,0-1.33-.67-2-.67-1.33,0-2.66,1.33-2.66,3.33s1.33,3.33,2.66,3.33H169V234h-.67v-2h3.33Zm13.33,0c-.66,0-2,.67-2.67.67A5.11,5.11,0,0,1,179,238a7.16,7.16,0,0,1-1.33-4c0-4,2-6,4.67-6,1.33,0,2,0,2,.66l-.67,2c-.66,0-1.33-.67-2-.67-1.34,0-2.67,1.33-2.67,3.33s1.33,3.33,2.67,3.33h.66V234h-.66v-2H185Zm20.67-4V230c0,1.33-.67,3.33-.67,4.67l-1.33,4.67h-1.33l-.66-4c0-1.33-.66-2.67-.66-4.67v8.67h-2l.67-11.33h2l.66,4c0,1.34.67,2.67.67,4,0-1.33.66-2.67.66-4l.67-4H207l.67,11.33h-2Zm10-6.67v6.67c0,2,.67,2.66,1.34,2.66s1.33-.67,1.33-2.66V228h2v6c0,3.33-1.34,5.33-3.33,5.33s-3.33-1.33-3.33-5.33v-6Zm12,8.66a2.45,2.45,0,0,0,2,.67,1.33,1.33,0,0,0,0-2.66,3.66,3.66,0,0,1-2-3.33A3.14,3.14,0,0,1,231,228a2.48,2.48,0,0,1,2,.66l-.68,2a2.91,2.91,0,0,0-2-.67,1.33,1.33,0,1,0,0,2.66,3.68,3.68,0,0,1,2,3.34,3.15,3.15,0,0,1-3.33,3.33c-.66,0-2-.67-2.66-.67ZM239,228h2v11.33h-2Zm14,10.66c-.68,0-1.34.67-2,.67-2.67,0-4.66-2.67-4.66-5.33,0-4,2-6,4.66-6,.67,0,2,0,2,.66l-.68,2c-.66,0-.66-.67-1.33-.67-1.33,0-2.67,1.33-2.67,4,0,2,.66,3.33,2.67,3.33.67,0,1.33,0,1.33-.67Zm20,0c-.68,0-1.34.67-2,.67-2.67,0-4.66-2.67-4.66-5.33,0-4,2-6,4.66-6,.66,0,2,0,2,.66l-.68,2c-.66,0-.66-.67-1.33-.67-1.33,0-2.67,1.33-2.67,4,0,2,.66,3.33,2.67,3.33.66,0,1.33,0,1.33-.67Zm10.66-4H281v2.66h3.33v2H279V228h5.34v2H281v2h2.67m6.67,7.34V228h2l2,4c.66,1.34.66,2.67,1.33,4v-8h2v11.33h-2l-2-4a9.52,9.52,0,0,1-1.34-4v8ZM305.69,230H303v-2h6.67v2h-2v9.33h-2m14.67-4.67H317.7v2.66H321v2h-5.34V228H321v2H317.7v2h2.67m6.67-4h2.67c1.33,0,2,0,2.66.66s.68,1.34.68,2.67-.68,2.66-1.34,2.66c.66,0,.66,1.33,1.34,2,0,1.33.66,2.66.66,3.33h-2a6.91,6.91,0,0,1-.66-2.67c0-1.33-.66-2-1.33-2H329v4.67h-2Zm2,4.66h.68a1.43,1.43,0,0,0,1.33-1.33c0-1.33-.66-1.33-1.33-1.33H329Z"/></svg>