<svg id="Layer_3" data-name="Layer 3" xmlns="http://www.w3.org/2000/svg" viewBox="0 0 438.72 500"><defs><style>.cls-1{fill:#fde263;}.cls-2{fill:#eb6b25;}.cls-3{fill:none;stroke:#fff;stroke-miterlimit:10;stroke-width:2.26px;}.cls-4{fill:#919090;}.cls-5{fill:#686b6b;}</style></defs><title>cap</title><path class="cls-1" d="M144.68,208.07l.64.16-2.1,8.3-.64-.16Z"/><path class="cls-2" d="M70.48,474.18c-.65,2.63,0,5.27,1.32,5.27l80.37,20.42c1.32.66,3.3-1.31,4-3.95l83-326.09c.66-2.64,0-5.27-1.32-5.27l-80.36-20.42c-1.32-.66-3.3,1.32-4,4Z"/><path class="cls-3" d="M231.22,200.8l-85.64-21.74m79,48.09L139,204.75m31.62,235.83-86.3-21.74M164,466.28,78.39,444.54"/><path class="cls-1" d="M245.05,216.61h.66v8.57h-.66Z"/><path class="cls-2" d="M238.46,492c0,3.3,1.32,5.27,2.64,5.27h83c1.31,0,2.63-2.63,2.63-5.27V124.38c0-3.3-1.32-5.27-2.63-5.27h-83c-1.32,0-2.64,2.63-2.64,5.27Z"/><path class="cls-3" d="M326.73,156H238.46m88.27,26.35H238.46m88.27,253H238.46m88.27,26.35H238.46"/><path class="cls-2" d="M339.91,499.21h82.35c1.32,0,2.64-2.64,2.64-5.27V125.7c0-3.29-1.32-5.27-2.64-5.27H339.91"/><path class="cls-3" d="M425.55,158H336.62m88.93,26.35H336.62m88.93,253H336.62m88.93,26.35H336.62"/><path class="cls-4" d="M438.72,48.63c-5.26,7.25-17.12,9.22-27,11.86-58,18.44-117.26,34.91-177.87,52.7-10.54,3.29-21.08,7.9-30.31,7.9-15.15,0-37.55-9.88-52-13.83C108,94.74,66.53,83.54,23.71,70.37,15.8,67.73,6.59,66.41,0,61.14c1.31-4.61,7.9-5.27,11.19-5.93C75.76,36.77,143.61,18.32,208.16.54c8.56-2,21.74,2,32.94,4,56.65,11.86,113.31,23.72,170.62,35.57C421.6,42.7,430.82,43.36,438.72,48.63Z"/><path class="cls-5" d="M310.27,91.44c10.54,14.49,12.52,36.89,14.5,59.95-52-3.3-105.4,9.88-146.9,29.64-14.49-20.42-27.66-23.71-63.9-40.18,3.95-14.49,10.53-26.35,16.47-38.21,11.85,3.29,23.05,6.59,34.91,9.88,13.18,4,26.35,10.54,40.19,9.22,7.9-.66,17.12-4.61,25.69-7.25C256.91,106.6,285.89,98.69,310.27,91.44Z"/></svg>