<svg id="Layer_2" data-name="Layer 2" xmlns="http://www.w3.org/2000/svg" viewBox="0 0 438.72 500"><defs><style>.cls-1{fill:#6f6860;}.cls-2{fill:#eb6b25;}.cls-3{fill:#be2628;}</style></defs><title>people</title><path class="cls-1" d="M306.22,500c-16-32.05,3.21-232.69-37.82-239.75-10.25-1.92-19.23-3.2-29.48-6.41-3.84-1.28-8.34-3.2-13.46-4.49-7.05-1.92-21.16,0-18.59-21.15l4.48-10.26c19.23-11.54,26.93-34,34-57,0-1.93,1.93-1.93,3.21-2.56,5.77-4.49,4.48-12.18,6.41-19.87,3.85-12.18,14.1-23.72,5.13-32.69-2.57-2.56-7.06-1.92-10.27-2.56,1.29-23.08,3.2-44.87-4.48-60.26C233.14,19.23,208.14,5.77,178.65.64l-7-.64H159.42c-29.48,5.13-54.49,18.59-67.31,41.67-8.33,14.74-5.77,37.18-4.49,60.26-3.84.64-8.33.64-10.9,2.56-9,9,1.28,20.51,5.13,32.69,2.56,8.33,1.28,15.38,6.41,19.87,1.28,1.28,3.2,1.28,3.2,2.56,7,23.08,15.38,45.51,34,57.05l4.49,10.26c1.92,21.16-11.54,19.23-18.59,21.16-5.13,1.28-9.61,3.2-13.46,4.49C87.63,255.77,78.66,257,68.39,259c-41,6.41-34.61,200-37.82,239.74"/><path class="cls-2" d="M353.66,500c-16-32.05,3.21-209.62-37.82-216-10.26-1.92-19.23-3.21-29.49-6.41-3.84-1.28-8.34-3.2-13.46-4.49-7.06-1.92-21.16,0-18.59-21.15l4.48-10.25c19.23-11.54,26.93-34,34-57.05,0-1.92,1.92-1.92,3.21-2.56,5.77-4.49,4.48-12.18,6.41-19.87,3.85-12.18,14.1-23.72,5.12-32.69-2.56-2.57-7.05-1.93-10.26-2.57,1.29-23.07,3.2-44.87-4.48-60.26C279.94,43.59,254.94,30.13,225.45,25l-7.05-.64H206.22C176.73,29.49,151.73,42.95,138.91,66c-8.33,14.74-5.77,37.18-4.49,60.26-3.2.64-8.33.64-10.25,2.56-9,9,1.28,20.51,5.13,32.69,2.57,8.33,1.28,15.38,6.41,19.87,1.28,1.28,3.2,1.28,3.2,2.57C146,207,154.3,229.49,172.88,241l4.49,10.26c1.92,21.15-11.54,19.23-18.59,21.15-5.13,1.28-9.62,3.2-13.47,4.49-10.25,3.2-19.23,4.49-29.49,6.41-41,6.41-34.62,178.2-37.82,216"/><path class="cls-3" d="M408.14,500c-16-32.05,3.2-169.87-37.82-176.92-10.25-1.93-19.23-3.2-29.48-6.41-3.85-1.28-8.34-3.21-13.46-4.49-7.06-1.92-21.16,0-18.59-21.15l4.48-10.26c19.23-11.54,26.93-34,34-57.05,0-1.92,1.91-1.92,3.2-2.56,5.77-4.49,4.48-12.18,6.41-19.87,3.84-12.18,14.1-23.72,5.12-32.69-2.55-2.56-7-1.92-10.25-2.56,1.29-23.08,3.21-44.87-4.48-60.26-12.82-23.08-37.82-36.54-67.31-41.67l-7.05-.64H260.71c-29.48,5.13-54.49,18.59-67.31,41.67-8.33,14.75-5.76,37.18-4.49,60.26-3.2.64-8.33.64-10.25,2.57-9,9,1.28,20.51,5.13,32.69,2.57,8.34,1.28,15.39,6.41,19.87,1.28,1.28,3.2,1.28,3.2,2.56,7.06,23.08,15.39,45.52,34,57.05l4.5,10.25c1.91,21.15-11.54,19.23-18.59,21.15-5.13,1.28-9.62,3.21-13.47,4.49-10.25,3.21-19.23,4.49-29.48,6.41-41,6.41-31.41,135.9-37.82,176.93"/></svg>