<svg xmlns="http://www.w3.org/2000/svg" width="1219.8" height="1069.3"><path fill="#D8D8D8" stroke="#6E675F" stroke-miterlimit="10" d="M2.9 88.1h582v418.7H2.9z"/><path fill="none" stroke="#000" stroke-miterlimit="10" d="M1.1 86.5L299.6 5.1l287.1 81.4"/><circle fill="#63675F" cx="31.9" cy="477.2" r="11.1" opacity=".1"/><circle fill="#63675F" cx="32" cy="117.2" r="11.1" opacity=".1"/><circle fill="#63675F" cx="557.9" cy="477.2" r="11.1" opacity=".1"/><path fill="#FFF" d="M51.8 128.3h474v342.8h-474z"/><circle fill="#63675F" cx="557.9" cy="117.2" r="11.1" opacity=".1"/><path fill="#BE2327" d="M70.8 149.5h433v298.6h-433z"/><path fill="#FFF" d="M72.4 151.5h429.3v295H72.4z"/><path fill="none" stroke="#6E675F" stroke-width="10" stroke-miterlimit="10" d="M140.8 228.1h297"/><path d="M227.3 405.5c-2.3-3-4.7-5.9-7.1-8.8-3.9 4.8-9.3 8.5-15.2 10.5 5.3 5.9 10.2 12.6 13.5 19.9l3.7-13.7 15.8 9s-3.8-7.5-10.7-16.9zm-60.2-3.4c-2.4-1.9-4.6-4-6.5-6.5-1.4 1.3-5.8 6.7-6.8 7.9-1.9 2.3-10 14-12 17.6l16-8.5 3.4 13.8c3.6-7.2 8.7-13.8 14.2-19.6-3-1.3-5.8-2.8-8.3-4.7-2.5-1.9 2.2 1.7 0 0zm59-30.3c0-9.9-4.2-19.5-11.6-26.1-7.4-6.7-17.4-10-27.3-8.9-9.7 1-18.8 6.2-24.6 14-6 8-8.2 18.4-6.2 28.2 2 9.5 8 18 16.4 23 8.6 5.2 19.2 6.4 28.8 3.4 14.4-4.7 24.5-18.5 24.5-33.6z" fill="#E1BE23"/><path fill="none" stroke="#6E675F" stroke-width="3" stroke-miterlimit="10" d="M140.8 290.1h297m-297 16h297m-297 16h297"/><path fill="none" stroke="#6E675F" stroke-miterlimit="10" d="M248.8 355.1h189m-189 16h189m-189 16h189m-189 16h189m-189 15h189"/><circle fill="#63675F" cx="296.8" cy="7.1" r="7.1"/><path fill="none" stroke="#000" stroke-miterlimit="10" d="M634.1 364.5l298.5-81.4 287.1 81.4"/><path fill="#D8D8D8" stroke="#6E675F" stroke-miterlimit="10" d="M635.9 366.1h582v418.7h-582z"/><circle fill="#63675F" cx="664.9" cy="755.2" r="11.1" opacity=".1"/><circle fill="#63675F" cx="665" cy="395.2" r="11.1" opacity=".1"/><circle fill="#63675F" cx="1190.9" cy="755.2" r="11.1" opacity=".1"/><path fill="#FFF" d="M684.8 406.3h474v342.8h-474z"/><circle fill="#63675F" cx="1190.9" cy="395.2" r="11.1" opacity=".1"/><path fill="#4899C3" d="M703.8 427.5h433v298.6h-433z"/><path fill="#FFF" d="M705.4 429.5h429.3v295H705.4z"/><path fill="none" stroke="#6E675F" stroke-width="10" stroke-miterlimit="10" d="M773.8 506.1h297"/><path d="M860.3 683.5c-2.3-3-4.7-5.9-7.1-8.8-3.9 4.8-9.3 8.5-15.2 10.5 5.3 5.9 10.2 12.6 13.5 19.9l3.7-13.7 15.8 9s-3.8-7.5-10.7-16.9zm-60.2-3.4c-2.4-1.9-4.6-4-6.5-6.5-1.4 1.3-5.8 6.7-6.8 7.9-1.9 2.3-10 14-12 17.6l16-8.5 3.4 13.8c3.6-7.2 8.7-13.8 14.2-19.6-3-1.3-5.8-2.8-8.3-4.7-2.5-1.9 2.2 1.7 0 0zm59-30.3c0-9.9-4.2-19.5-11.6-26.1-7.4-6.7-17.4-10-27.3-8.9-9.7 1-18.8 6.2-24.6 14-6 8-8.2 18.4-6.2 28.2 2 9.5 8 18 16.4 23 8.6 5.2 19.2 6.4 28.8 3.4 14.4-4.7 24.5-18.5 24.5-33.6z" fill="#E1BE23"/><path fill="none" stroke="#6E675F" stroke-width="3" stroke-miterlimit="10" d="M773.8 568.1h297m-297 16h297m-297 16h297"/><path fill="none" stroke="#6E675F" stroke-miterlimit="10" d="M881.8 633.1h189m-189 16h189m-189 16h189m-189 16h189m-189 15h189"/><circle fill="#63675F" cx="929.8" cy="285.1" r="7.1"/><path fill="none" stroke="#000" stroke-miterlimit="10" d="M.1 648.5l298.5-81.4 287.1 81.4"/><path fill="#D8D8D8" stroke="#6E675F" stroke-miterlimit="10" d="M1.9 650.1h582v418.7H1.9z"/><circle fill="#63675F" cx="30.9" cy="1039.2" r="11.1" opacity=".1"/><circle fill="#63675F" cx="31" cy="679.2" r="11.1" opacity=".1"/><circle fill="#63675F" cx="556.9" cy="1039.2" r="11.1" opacity=".1"/><path fill="#FFF" d="M50.8 690.3h474v342.8h-474z"/><circle fill="#63675F" cx="556.9" cy="679.2" r="11.1" opacity=".1"/><path fill="#EB6A24" d="M69.8 711.5h433v298.6h-433z"/><path fill="#FFF" d="M71.4 713.5h429.3v295H71.4z"/><path fill="none" stroke="#6E675F" stroke-width="10" stroke-miterlimit="10" d="M139.8 790.1h297"/><path d="M226.3 967.5c-2.3-3-4.7-5.9-7.1-8.8-3.9 4.8-9.3 8.5-15.2 10.5 5.3 5.9 10.2 12.6 13.5 19.9l3.7-13.7 15.8 9s-3.8-7.5-10.7-16.9zm-60.2-3.4c-2.4-1.9-4.6-4-6.5-6.5-1.4 1.3-5.8 6.7-6.8 7.9-1.9 2.3-10 14-12 17.6l16-8.5 3.4 13.8c3.6-7.2 8.7-13.8 14.2-19.6-3-1.3-5.8-2.8-8.3-4.7-2.5-1.9 2.2 1.7 0 0zm59-30.3c0-9.9-4.2-19.5-11.6-26.1-7.4-6.7-17.4-10-27.3-8.9-9.7 1-18.8 6.2-24.6 14-6 8-8.2 18.4-6.2 28.2 2 9.5 8 18 16.4 23 8.6 5.2 19.2 6.4 28.8 3.4 14.4-4.7 24.5-18.5 24.5-33.6z" fill="#E1BE23"/><path fill="none" stroke="#6E675F" stroke-width="3" stroke-miterlimit="10" d="M139.8 852.1h297m-297 16h297m-297 16h297"/><path fill="none" stroke="#6E675F" stroke-miterlimit="10" d="M247.8 917.1h189m-189 16h189m-189 16h189m-189 16h189m-189 15h189"/><circle fill="#63675F" cx="295.8" cy="569.1" r="7.1"/></svg>