<svg xmlns="http://www.w3.org/2000/svg" width="110" height="110"><path fill="#F7F7F7" d="M110 53.2C111 85 85 111 53.2 110 24.4 109.1.9 85.6 0 56.8-1 25 25-1 56.8 0c28.8.9 52.3 24.4 53.2 53.2z"/><path fill="#763E22" d="M.4 61.5C3.6 88.8 26.8 110 55 110s51.4-21.2 54.6-48.5H.4z"/><path fill="#BD2227" d="M83.9 59.3c0 1.3-.8 2.3-1.7 2.3H62.9c-1 0-1.7-1-1.7-2.3V35.2h22.7v24.1z"/><path fill="#696A6A" d="M87.2 42.6h-3.4v-2.3h4.6c1.3 0 2.3 1 2.3 2.3v5.7c0 3.2-2.6 5.7-5.7 5.7h-1.1v-2.3H85c1.9 0 3.4-1.5 3.4-3.4v-4.6c-.1-.6-.6-1.1-1.2-1.1"/><path fill="#FFF" d="M72.7 43.6c.5.2.3 1.1.3 1.6.2-.1.3-.4.5-.6.1-.2.4-.4.6-.3 0 .3-.2.6-.4.7-.2.2-.6.3-.8.6-.1.4-.1 1 0 1.3.5-.3 1.1-.9 1.6-1.2.3-.2.6-.5.9-.3-.1.5-.5.7-.9.9.1 0 .2 0 .4-.1.4-.1.8-.1.9.3-.4.3-1.3.2-1.7.1-.1.1-.3.1-.4.1.3.3 1 .3 1 .9-.3.2-.6-.1-.8-.2l-.6-.6c-.2.1-.4.1-.5.3v1.4c.9 0 1.8-.4 2.6-.3.3 0 .7.2.5.5-.3.4-1.4.1-1.9.2.1.1.2.2.4.3.2.1.5.6 0 .6-.4 0-.5-.7-.7-1-.3-.1-.6-.1-.9-.2-.1 1.1-.1 2.5-.1 3.7h1.2c-.3.1-.7.1-1 .1.1.3.3.4.4.6-.2-.1-.4-.4-.6-.5-.1.3-.1.8-.1 1.1-.1-.3 0-.8-.1-1.1-.3.1-.4.4-.7.5.2-.2.4-.4.5-.6-.2-.1-.6-.1-.9-.1.3-.1.8 0 1.1-.1 0-1.2 0-2.5-.1-3.7-.3 0-.6.1-.9.1-.2.3-.4 1.2-.9.9 0-.4.4-.6.7-.8-.5-.1-1.9.3-1.9-.4 0-.4.5-.4.9-.4.7 0 1.6.2 2.2.3v-1.4c-.1-.1-.3-.2-.5-.3-.4.3-.6.8-1.2.9-.5-.5.7-.9.9-1.1-.1-.1-.2-.1-.3-.2-.3.1-.8.1-1.3.1-.1 0-.5-.1-.5-.2 0-.2.4-.3.7-.3.2 0 .4.1.5.1-.1-.1-.3-.3-.5-.4-.1-.1-.4-.3-.4-.5.1-.3.6 0 .7.1.7.4 1.3 1 1.8 1.4.1-.4 0-.9 0-1.3-.2-.2-.5-.3-.8-.6-.2-.2-.5-.5-.4-.8.6.1.7.6 1 .9.4.2.2-.6.5-1z"/><circle fill="none" stroke="#FFF" stroke-width=".678" stroke-miterlimit="10" cx="72.7" cy="48.9" r="7.3"/><path fill="#BD2227" d="M16.1 59.2c0 1.3.8 2.3 1.7 2.3H37c1 0 1.7-1 1.7-2.3v-24H16.1v24z"/><path fill="#696A6A" d="M12.8 42.5h3.4v-2.3h-4.6c-1.3 0-2.3 1-2.3 2.3v5.7c0 3.2 2.6 5.7 5.7 5.7h1.1v-2.3H15c-1.9 0-3.4-1.5-3.4-3.4v-4.6c0-.5.5-1.1 1.2-1.1"/><path fill="#FFF" d="M27.3 43.5c-.5.2-.3 1.1-.3 1.6-.2-.1-.3-.4-.5-.6-.1-.2-.4-.4-.6-.3 0 .3.2.6.4.7.2.2.6.3.8.6.1.4.1 1 0 1.3-.5-.3-1.1-.9-1.6-1.2-.3-.2-.6-.5-.9-.3.1.5.5.7.9.9-.1 0-.2 0-.4-.1-.4-.1-.8-.1-.9.3.4.3 1.3.2 1.7.1.1.1.3.1.4.1-.3.3-1 .3-1 .9.3.2.6-.1.8-.2l.6-.6c.2.1.4.1.5.3v1.4c-.9 0-1.8-.4-2.6-.3-.3 0-.7.2-.5.5.3.4 1.4.1 1.9.2-.1.1-.2.2-.4.3-.2.1-.5.6 0 .6.4 0 .5-.7.7-1 .3-.1.6-.1.9-.2.1 1.1.1 2.5.1 3.7h-1.2c.3.1.7.1 1 .1-.1.3-.3.4-.4.6.2-.1.4-.4.6-.5.1.3.1.8.1 1.1.1-.3 0-.8.1-1.1.3.1.4.4.7.5-.2-.2-.4-.4-.5-.6.2-.1.6-.1.9-.1-.3-.1-.8 0-1.1-.1 0-1.2 0-2.5.1-3.7.3 0 .6.1.9.1.2.3.4 1.2.9.9 0-.4-.4-.6-.7-.8.5-.1 1.9.3 1.9-.4 0-.4-.5-.4-.9-.4-.7 0-1.6.2-2.2.3v-1.4c.1-.1.3-.2.5-.3.4.3.6.8 1.2.9.5-.5-.7-.9-.9-1.1.1-.1.2-.1.3-.2.3.1.8.1 1.3.1.1 0 .5-.1.5-.2 0-.2-.4-.3-.7-.3-.2 0-.4.1-.5.1.1-.1.3-.3.5-.4.1-.1.4-.3.4-.5-.1-.3-.6 0-.7.1-.7.4-1.3 1-1.8 1.4-.1-.4 0-.9 0-1.3.2-.2.5-.3.8-.6.2-.2.5-.5.4-.8-.6.1-.7.6-1 .9-.4.2-.2-.6-.5-1z"/><circle fill="none" stroke="#FFF" stroke-width=".678" stroke-miterlimit="10" cx="27.3" cy="48.8" r="7.3"/><path fill="#9D6127" d="M.4 61.5c.2 1.3.4 2.7.6 4h108c.3-1.3.5-2.7.6-4H.4z"/></svg>