<svg xmlns="http://www.w3.org/2000/svg" width="110" height="110" viewBox="0 0 110 110"><circle opacity=".25" fill-rule="evenodd" clip-rule="evenodd" fill="#EB6A24" cx="55" cy="55" r="55"/><path fill="#FDE262" d="M37.863 52.004l.097.024-.32 1.26-.096-.024z"/><path fill-rule="evenodd" clip-rule="evenodd" fill="#EB6A24" d="M26.6 92.4c-.1.4 0 .8.2.8L39 96.3c.2.1.5-.2.6-.6l12.6-49.5c.1-.4 0-.8-.2-.8l-12.2-3.1c-.2-.1-.5.2-.6.6L26.6 92.4z"/><path d="M51 50.9l-13-3.3m12 7.3l-13-3.4m4.8 35.8L28.7 84m12.1 7.2l-13-3.3" fill="none" stroke="#FFF" stroke-width="2.261" stroke-miterlimit="10"/><path fill="#FDE262" d="M53.1 53.3h.1v1.3h-.1z"/><path fill-rule="evenodd" clip-rule="evenodd" fill="#EB6A24" d="M52.1 95.1c0 .5.2.8.4.8h12.6c.2 0 .4-.4.4-.8V39.3c0-.5-.2-.8-.4-.8H52.5c-.2 0-.4.4-.4.8v55.8z"/><path d="M65.5 44.1H52.1m13.4 4H52.1m13.4 38.4H52.1m13.4 4H52.1" fill="none" stroke="#FFF" stroke-width="2.261" stroke-miterlimit="10"/><path fill-rule="evenodd" clip-rule="evenodd" fill="#EB6A24" d="M67.5 96.2H80c.2 0 .4-.4.4-.8V39.5c0-.5-.2-.8-.4-.8H67.5"/><path fill="none" stroke="#FFF" stroke-width="2.261" stroke-miterlimit="10" d="M80.5 44.4H67m13.5 4H67m13.5 38.4H67m13.5 4H67"/><g fill-rule="evenodd" clip-rule="evenodd"><path fill="#909090" d="M82.5 27.8c-.8 1.1-2.6 1.4-4.1 1.8-8.8 2.8-17.8 5.3-27 8-1.6.5-3.2 1.2-4.6 1.2-2.3 0-5.7-1.5-7.9-2.1-6.6-1.9-12.9-3.6-19.4-5.6-1.2-.4-2.6-.6-3.6-1.4.2-.7 1.2-.8 1.7-.9 9.8-2.8 20.1-5.6 29.9-8.3 1.3-.3 3.3.3 5 .6 8.6 1.8 17.2 3.6 25.9 5.4 1.5.4 2.9.5 4.1 1.3z"/><path fill="#686A6A" d="M63 34.3c1.6 2.2 1.9 5.6 2.2 9.1-7.9-.5-16 1.5-22.3 4.5-2.2-3.1-4.2-3.6-9.7-6.1.6-2.2 1.6-4 2.5-5.8 1.8.5 3.5 1 5.3 1.5 2 .6 4 1.6 6.1 1.4 1.2-.1 2.6-.7 3.9-1.1 3.9-1.2 8.3-2.4 12-3.5z"/></g></svg>