<svg xmlns="http://www.w3.org/2000/svg" width="110" height="110"><circle opacity=".25" fill-rule="evenodd" clip-rule="evenodd" fill="#1674BB" cx="55" cy="55" r="55"/><path fill-rule="evenodd" clip-rule="evenodd" fill="#1674BB" d="M26.9 44c0 .6-.6 1.1-1.3 1.1-.7 0-1-.7-1.2-1.1-.9-1.6-1.5-3.1-2.4-4.6v11.2c0 1.8.4 4.3-1 4.5h-.5c-1.4-.2-1-3-1-4.8v-3.9h-.4c-.1 1.6-.1 3.9-.1 5.9 0 1.4.2 2.6-1 2.8h-.5c-1.5-.3-1-2.7-1-4.6V39.3c-.5 1-.9 2-1.5 3.1-.4.7-1 2.6-2 2.6-.6 0-1.3-.4-1.3-1.1 0-.6.5-1.3.7-1.8.9-1.8 1.6-3.8 2.6-5.1 1-1.2 2.1-1.2 4.4-1.2 1.1 0 2.2-.1 2.8.1 2 .6 3.1 4.1 4 5.9.1.6.8 1.4.7 2.2"/><circle fill-rule="evenodd" clip-rule="evenodd" fill="#1674BB" cx="19.2" cy="32.6" r="2.7"/><path fill="#686A6A" d="M61.3 44.3c0 .6-.6 1.1-1.3 1.1-.7 0-1-.7-1.2-1.1-.9-1.6-1.5-3.1-2.4-4.6v11.2c0 1.8.4 4.3-1 4.5h-.5c-1.4-.2-1-3-1-4.8v-3.9h-.4c-.1 1.6-.1 3.9-.1 5.9 0 1.4.2 2.6-1 2.8h-.5c-1.5-.3-1-2.7-1-4.6V39.6c-.5 1-.9 2-1.5 3.1-.4.7-1 2.6-2 2.6-.6 0-1.3-.4-1.3-1.1 0-.6.5-1.3.7-1.8.9-1.8 1.6-3.8 2.6-5.1 1-1.2 2.1-1.2 4.4-1.2 1.1 0 2.2-.1 2.8.1 2 .6 3.1 4.1 4 5.9 0 .5.8 1.4.7 2.2"/><circle fill="#686A6A" cx="53.5" cy="32.9" r="2.7"/><path fill="#686A6A" d="M78.4 44.2c0 .6-.6 1.1-1.3 1.1-.7 0-1-.7-1.2-1.1-.9-1.6-1.5-3.1-2.4-4.6v11.2c0 1.8.4 4.3-1 4.5H72c-1.4-.2-1-3-1-4.8v-3.9h-.4c-.1 1.6-.1 3.9-.1 5.9 0 1.4.2 2.6-1 2.8H69c-1.5-.3-1-2.7-1-4.6 0-3.7 0-7.8-.1-11.2-.5 1-.9 2-1.5 3.1-.4.7-1 2.6-2 2.6-.6 0-1.3-.4-1.3-1.1 0-.6.5-1.3.7-1.8.9-1.8 1.6-3.8 2.6-5.1 1-1.2 2.1-1.2 4.4-1.2 1.1 0 2.2-.1 2.8.1 2 .6 3.1 4.1 4 5.9.1.6.8 1.4.8 2.2"/><circle fill="#686A6A" cx="70.6" cy="32.8" r="2.7"/><path fill="#686A6A" d="M95.5 44.4c0 .6-.6 1.1-1.3 1.1-.7 0-1-.7-1.2-1.1-.9-1.6-1.5-3.1-2.4-4.6V51c0 1.8.4 4.3-1 4.5h-.5c-1.4-.2-1-3-1-4.8v-3.9h-.4c-.1 1.6-.1 3.9-.1 5.9 0 1.4.2 2.6-1 2.8h-.5c-1.5-.3-1-2.7-1-4.6V39.7c-.5 1-.9 2-1.5 3.1-.4.7-1 2.6-2 2.6-.6 0-1.3-.4-1.3-1.1 0-.6.5-1.3.7-1.8.9-1.8 1.6-3.8 2.6-5.1 1-1.2 2.1-1.2 4.4-1.2 1.1 0 2.2-.1 2.8.1 2 .6 3.1 4.1 4 5.9 0 .5.8 1.4.7 2.2"/><circle fill="#686A6A" cx="87.8" cy="33" r="2.7"/><path fill="#686A6A" d="M44.4 44c0 .6-.6 1.1-1.3 1.1-.7 0-1-.7-1.2-1.1-.9-1.6-1.5-3.1-2.4-4.6v11.2c0 1.8.4 4.3-1 4.5H38c-1.4-.2-1-3-1-4.8v-3.9h-.4c-.1 1.6-.1 3.9-.1 5.9 0 1.4.2 2.6-1 2.8H35c-1.5-.3-1-2.7-1-4.6V39.3c-.5 1-.9 2-1.5 3.1-.4.7-1 2.6-2 2.6-.6 0-1.3-.4-1.3-1.1 0-.6.5-1.3.7-1.8.9-1.8 1.6-3.8 2.6-5.1 1-1.2 2.1-1.2 4.4-1.2 1.1 0 2.2-.1 2.8.1 2 .6 3.1 4.1 4 5.9 0 .6.7 1.4.7 2.2"/><circle fill="#686A6A" cx="36.6" cy="32.6" r="2.7"/><path fill="#686A6A" d="M62 72.4c0 .6-.6 1.1-1.3 1.1-.7 0-1-.7-1.2-1.1-.9-1.6-1.5-3.1-2.4-4.6V79c0 1.8.4 4.3-1 4.5h-.5c-1.4-.2-1-3-1-4.8v-3.9h-.4c-.1 1.6-.1 3.9-.1 5.9 0 1.4.2 2.6-1 2.8h-.5c-1.5-.3-1-2.7-1-4.6V67.7c-.5 1-.9 2-1.5 3.1-.4.7-1 2.6-2 2.6-.6 0-1.3-.4-1.3-1.1 0-.6.5-1.3.7-1.8.9-1.8 1.6-3.8 2.6-5.1 1-1.2 2.1-1.2 4.4-1.2 1.1 0 2.2-.1 2.8.1 2 .6 3.1 4.1 4 5.9 0 .6.7 1.5.7 2.2"/><circle fill="#686A6A" cx="54.2" cy="61.1" r="2.7"/><path fill="#686A6A" d="M79 72.4c0 .6-.6 1.1-1.3 1.1-.7 0-1-.7-1.2-1.1-.9-1.6-1.5-3.1-2.4-4.6V79c0 1.8.4 4.3-1 4.5h-.5c-1.4-.2-1-3-1-4.8v-3.9h-.4c-.1 1.6-.1 3.9-.1 5.9 0 1.4.2 2.6-1 2.8h-.5c-1.5-.3-1-2.7-1-4.6V67.7c-.5 1-.9 2-1.5 3.1-.4.7-1 2.6-2 2.6-.6 0-1.3-.4-1.3-1.1 0-.6.5-1.3.7-1.8.9-1.8 1.6-3.8 2.6-5.1 1-1.2 2.1-1.2 4.4-1.2 1.1 0 2.2-.1 2.8.1 2 .6 3.1 4.1 4 5.9 0 .5.7 1.4.7 2.2"/><circle fill="#686A6A" cx="71.2" cy="61" r="2.7"/><path fill="#686A6A" d="M96.2 72.5c0 .6-.6 1.1-1.3 1.1-.7 0-1-.7-1.2-1.1-.9-1.6-1.5-3.1-2.4-4.6v11.2c0 1.8.4 4.3-1 4.5h-.5c-1.4-.2-1-3-1-4.8v-3.9h-.4c-.1 1.6-.1 3.9-.1 5.9 0 1.4.2 2.6-1 2.8h-.5c-1.5-.3-1-2.7-1-4.6V67.8c-.5 1-.9 2-1.5 3.1-.4.7-1 2.6-2 2.6-.6 0-1.3-.4-1.3-1.1 0-.6.5-1.3.7-1.8.9-1.8 1.6-3.8 2.6-5.1 1-1.2 2.1-1.2 4.4-1.2 1.1 0 2.2-.1 2.8.1 2 .6 3.1 4.1 4 5.9 0 .6.7 1.5.7 2.2"/><circle fill="#686A6A" cx="88.4" cy="61.2" r="2.7"/><path fill="#686A6A" d="M45 72.2c0 .6-.6 1.1-1.3 1.1-.7 0-1-.7-1.2-1.1-.9-1.6-1.5-3.1-2.4-4.6v11.2c0 1.8.4 4.3-1 4.5h-.5c-1.4-.2-1-3-1-4.8v-3.9h-.4c-.1 1.6-.1 3.9-.1 5.9 0 1.4.2 2.6-1 2.8h-.5c-1.5-.3-1-2.7-1-4.6V67.5c-.5 1-.9 2-1.5 3.1-.4.7-1 2.6-2 2.6-.6 0-1.3-.4-1.3-1.1 0-.6.5-1.3.7-1.8.9-1.8 1.6-3.8 2.6-5.1 1-1.2 2.1-1.2 4.4-1.2 1.1 0 2.2-.1 2.8.1 2 .6 3.1 4.1 4 5.9 0 .5.8 1.4.7 2.2"/><circle fill="#686A6A" cx="37.2" cy="60.8" r="2.7"/></svg>