<svg xmlns="http://www.w3.org/2000/svg" xmlns:xlink="http://www.w3.org/1999/xlink" width="60" height="60" viewBox="0 0 60 60"><path fill="#b83a93" d="M3.7 3.7h3.8v52.5H3.7zM11.3 60v-1.9c0-1-.8-1.9-1.9-1.9H1.9c-1 0-1.9.8-1.9 1.9V60h11.3z"/><path fill="#b83a93" d="M9.4 3.7c0-2-1.7-3.7-3.8-3.7-2 0-3.7 1.7-3.7 3.7 0 2.1 1.7 3.8 3.8 3.8 2 0 3.7-1.7 3.7-3.8"/><defs><path id="a" d="M3.7 7h3.8v2.4H3.7z"/></defs><use xlink:href="#a" overflow="visible" fill="#b83a93"/><clipPath id="b"><use xlink:href="#a" overflow="visible"/></clipPath><path clip-path="url(#b)" fill="#b83a93" d="M5.6 7.5c-.7 0-1.3-.2-1.9-.5v1.9c.6.3 1.2.5 1.9.5s1.3-.2 1.9-.5V7c-.5.3-1.2.5-1.9.5"/><path fill="#b83a93" d="M7.5 7.5h28.1v13.1H7.5zm0 13.1h28.1v13.1H7.5z"/><path fill="#b83a93" d="M56.2 26.3H30V13.1h30m0 26.3H30V26.3h26.2"/><defs><path id="c" d="M3.7 54.7h3.8v1.5H3.7z"/></defs><use xlink:href="#c" overflow="visible" fill="#b83a93"/><clipPath id="d"><use xlink:href="#c" overflow="visible"/></clipPath><path clip-path="url(#d)" fill="#b83a93" d="M3.7 54.7h3.8v1.5H3.7z"/><defs><path id="e" d="M9.4 13.1H30v20.6H9.4z"/></defs><use xlink:href="#e" overflow="visible" fill="#b83a93"/><clipPath id="f"><use xlink:href="#e" overflow="visible"/></clipPath><path clip-path="url(#f)" fill="#b83a93" d="M9.4 33.7L30 13.1v20.6"/><path fill="#b83a93" d="M30.3 13.1l5.3-5.6v5.6"/></svg>