<svg xmlns="http://www.w3.org/2000/svg" width="58.8" height="78"><path fill-rule="evenodd" clip-rule="evenodd" fill="#1674BB" d="M42.9 78c-2.5-5 .5-36.3-5.9-37.4-1.6-.3-3-.5-4.6-1-.6-.2-1.3-.5-2.1-.7-1.1-.3-3.3 0-2.9-3.3l.7-1.6c3-1.8 4.2-5.3 5.3-8.9 0-.3.3-.3.5-.4.9-.7.7-1.9 1-3.1.6-1.9 2.2-3.7.8-5.1-.4-.4-1.1-.3-1.6-.4.2-3.6.5-7-.7-9.4C31.5 3 27.6.9 23 .1L21.9 0H20c-4.6.8-8.5 2.9-10.5 6.5-1.3 2.3-.9 5.8-.7 9.4-.6.1-1.3.1-1.7.4-1.4 1.4.2 3.2.8 5.1.4 1.3.2 2.4 1 3.1.2.2.5.2.5.4 1.1 3.6 2.4 7.1 5.3 8.9l.7 1.6c.3 3.3-1.8 3-2.9 3.3-.8.2-1.5.5-2.1.7-1.6.5-3 .7-4.6 1-6.4 1-5.4 31.2-5.9 37.4"/><path fill-rule="evenodd" clip-rule="evenodd" fill="#EB6A24" d="M50.3 78c-2.5-5 .5-32.7-5.9-33.7-1.6-.3-3-.5-4.6-1-.6-.2-1.3-.5-2.1-.7-1.1-.3-3.3 0-2.9-3.3l.7-1.6c3-1.8 4.2-5.3 5.3-8.9 0-.3.3-.3.5-.4.9-.7.7-1.9 1-3.1.6-1.9 2.2-3.7.8-5.1-.4-.4-1.1-.3-1.6-.4.2-3.6.5-7-.7-9.4-2-3.6-5.9-5.7-10.5-6.5l-1.1-.1h-1.9c-4.6.8-8.5 2.9-10.5 6.5-1.3 2.3-.9 5.8-.7 9.4-.5.1-1.3.1-1.6.4-1.4 1.4.2 3.2.8 5.1.4 1.3.2 2.4 1 3.1.2.2.5.2.5.4 1.1 3.6 2.4 7.1 5.3 8.9l.7 1.6c.3 3.3-1.8 3-2.9 3.3-.8.2-1.5.5-2.1.7-1.6.5-3 .7-4.6 1-6.4 1-5.4 27.8-5.9 33.7"/><path fill-rule="evenodd" clip-rule="evenodd" fill="#BE2327" d="M58.8 78c-2.5-5 .5-26.5-5.9-27.6-1.6-.3-3-.5-4.6-1-.6-.2-1.3-.5-2.1-.7-1.1-.3-3.3 0-2.9-3.3l.7-1.6c3-1.8 4.2-5.3 5.3-8.9 0-.3.3-.3.5-.4.9-.7.7-1.9 1-3.1.6-1.9 2.2-3.7.8-5.1-.4-.4-1.1-.3-1.6-.4.2-3.6.5-7-.7-9.4-2-3.6-5.9-5.7-10.5-6.5l-1.1-.1h-1.9c-4.6.8-8.5 2.9-10.5 6.5-1.3 2.3-.9 5.8-.7 9.4-.5.1-1.3.1-1.6.4-1.4 1.4.2 3.2.8 5.1.4 1.3.2 2.4 1 3.1.2.2.5.2.5.4 1.1 3.6 2.4 7.1 5.3 8.9l.7 1.6c.3 3.3-1.8 3-2.9 3.3-.8.2-1.5.5-2.1.7-1.6.5-3 .7-4.6 1-6.4 1-4.9 21.2-5.9 27.6"/></svg>