<svg xmlns="http://www.w3.org/2000/svg" width="40.7" height="85" viewBox="0 0 40.7 85"><path fill="#393530" d="M39 46.9h.1v.7H39z"/><path d="M20.2 0c3-.1 5.4 1.7 6.4 3.8 1.9 3.9-.6 8.5-3.7 9.6-4.7 1.7-10.2-1.8-9.5-7.4.2-2.1 1.3-3.6 2.5-4.5C17 .5 18.3.1 20.2 0zm9.5 24.9h-2.3c2.9 10.8 6.1 21.3 9.2 32h-8.5c-.2 6.6-.1 13.7-.1 20.3 0 3.7.6 7.4-2.6 7.9-1.7.3-3.4-.8-3.8-2.2-.5-1.7-.1-4.3-.1-6.4V56.9c-.7-.2-1.7 0-2.5-.1-.1 6 0 13.1 0 19.6 0 2.5.4 5.9-.6 7.3-1.4 1.9-5 1.4-5.7-.8-.5-1.6-.1-4.6-.1-6.5 0-6.5-.2-13.3 0-19.4-2.7-.2-5.7 0-8.5-.1C7 46.2 10.2 35.7 13.2 25c-.3-.1-1.6-.2-2.2 0-1.6 5.2-3.3 10.2-4.9 15.9-.5 1.8-1 3.8-2.6 4.3-2.1.5-3.7-1.2-3.5-3.4.1-.9.5-1.8.8-2.8 1.2-4 2.5-8.6 3.9-13 .6-1.8 1-3.8 1.6-5.3.6-1.4 2-3 3.3-3.9 1.1-.8 2.3-1.3 3.9-1.4 2.3-.2 5 0 7.5 0 2.4 0 5.4-.3 7.4.2s4.4 2.5 5.4 4.1c.9 1.5 1.5 3.8 2 5.5 1.2 4 2.2 7.5 3.4 11.6.2.9.6 1.7.9 2.8.3 1 .7 2.1.6 3.1-.3 2.4-3.6 3.4-5.1 1.3-.4-.6-.6-1.5-.8-2.3-1.7-5.5-3.5-11.3-5.1-16.8z" fill="#393530"/></svg>