<svg xmlns="http://www.w3.org/2000/svg" width="57.7" height="54"><path fill-rule="evenodd" clip-rule="evenodd" fill="#ec6a1e" d="M44.9 16.2c-1-.1-1.3-.8-2.3-.9 3-6.6-2.3-13.5-8.9-12.8-4.8.5-8.1 4.4-7.7 10.1-.8.2-1.6.3-2.6.3-.6-8 5.4-13.2 11.8-12.9 7.5.4 13.1 8.6 9.7 16.2z"/><path fill="#ec6a1e" d="M19.1 12.6c10.9-3.4 23.3.1 29.1 6.5 2.7 2.9 5.1 7.6 4.4 12.8-.6 4.7-3 7.5-5.7 10.4.3 3.6 1.2 7.8.7 11.2-.8.7-2.3.4-3.5.4-1.4 0-2.9.2-3.8-.1-1.8-.7-2.9-4.7-4.4-5.8-2.4.5-4.8 1-7.5 1-1 0-2.7-.6-3.7-.3-.7.2-1.7 1.9-2.1 2.6-.7 1-1.1 2-2 2.6-2.1.1-6 .7-7.5-.4-.4-2.6.5-5.3.4-8.1-2.9-2.3-6-4.4-7.7-7.9-1.9-.6-3.9-1.1-5.5-2C.1 32.3.1 28.2.3 25c1.6-.9 3.7-1.3 5.4-2 1.7-2.9 4-5.1 6.7-7.1-1.7-3.3-4.5-6.4-6.4-9.1 6.2-1.6 10.8 1.8 13.1 5.8zm-6.7 11.2c3.5.2 3.5-5.8-.6-4.8-2.7.7-2.3 4.7.6 4.8z"/><path clip-rule="evenodd" fill="none" d="M11.8 19c4-1 4 5 .6 4.8-2.9-.1-3.3-4.1-.6-4.8z"/><path fill="none" stroke="#ec6a1e" stroke-width="2.373" stroke-miterlimit="10" d="M48.4 32.1c3.7.6 7.4-2.4 8.1-6.8"/></svg>