<svg xmlns="http://www.w3.org/2000/svg" width="34.6" height="85" viewBox="0 0 34.6 85"><path d="M11.1 10.3C8.9 5.3 12 .4 16.7 0c4.8-.4 8 3.5 7.5 7.7-.3 2.5-2 4.8-4.2 5.7-3.5 1.4-7.3-.3-8.9-3.1zm7.4 38.2H16c0 8.2.1 17.5 0 25.7 0 2.3.5 6.3-.3 8.2-.5 1.2-1.6 2.3-2.9 2.5-2.1.4-3.8-.9-4.4-2.4-.3-.8-.2-2.1-.3-3.3C8 61 8.3 43 8.2 24.9c-.7-.2-1.7 0-2.5-.1v18.7c0 2.3-.1 4-1.5 4.8-.9.5-2.2.5-3-.2-1.2-.9-1-3.3-1-5.4v-6.4c0-4.3-.3-9 0-12.9.2-3.4 2.5-6.5 5.8-7.7 2.6-.9 7.6-.4 11-.4 3.8 0 7.8-.5 10.9.3 2.3.6 4.3 2.4 5.3 4.4 1.8 3.5 1.1 9.5 1.1 14.9v8c0 3 0 5.3-2.3 5.7-.9.2-1.5-.2-2.3-.6-1.1-1.2-.9-3.2-.9-5.1V24.8c-.7-.2-1.7 0-2.5-.1v50.7c0 2.3.4 5.3-.3 6.9-.4 1.2-1.7 2.3-2.9 2.5-2.3.3-3.8-1-4.4-2.5-.5-1.3-.2-3.8-.3-6v-7.7c0-6.4.2-13.4.1-20.1z" fill="#be2126"/></svg>