<svg xmlns="http://www.w3.org/2000/svg" width="59.3" height="75" viewBox="0 0 59.3 75"><path fill="#5EB8B7" d="M29.6 36.1H0l14.8-6.7 14.8-6.8 14.9 6.8 14.8 6.7M4.7 68.6h49.9V75H4.7z"/><path fill="#5EB8B7" d="M22.8 18.4h13.8v9.1H22.8zm-15 14.5h43.7v4.2H7.8z"/><path fill="#5EB8B7" d="M29.6 32.9H3.8l12.9-6.7 12.9-6.8 13 6.8 12.9 6.7m-45.3 4.2h2.6v29.8h-2.6zm36.2 0H49v29.8h-2.6zM23.3 9.4h12.6v9.2H23.3z"/><path fill="#5EB8B7" d="M7.8 66.8h43.7v8.1H7.8zM28 0h3.3v3.3H28zm9 8.1H22.3l-.8 1.3h16.2"/><path fill="#5EB8B7" d="M35.9 6.9H23.3l-.6 1.3h13.9"/><path fill="#5EB8B7" d="M24 7c0-3.1 2.5-5.6 5.6-5.6 3.1 0 5.6 2.5 5.6 5.6M9.8 64.7h3.4v.9H9.8zm36.2 0h3.4v.9H46zM29.6 53.5h-9.7l4.9-2.5 4.8-2.5 4.9 2.5 4.8 2.5"/><path fill="#5EB8B7" d="M9.2 65.6h4.6v1.2H9.2zm12.2-28.5H24v29.8h-2.6zm13.9 0h2.6v29.8h-2.6z"/><path fill="#5EB8B7" d="M21 64.7h3.4v.9H21zm13.9 0h3.4v.9h-3.4z"/><path fill="#5EB8B7" d="M20.4 65.6H25v1.2h-4.6zm13.9 0h4.6v1.2h-4.6zm11.1 0H50v1.2h-4.6z"/><path fill="#5EB8B7" d="M4.7 35.7v33.2h49.9V35.7H4.7zm29.6 31.1H25V55.2h9.3v11.6zM7.8 68h43.7M7.8 69.3h43.7M7.8 70.5h43.7M7.8 71.7h43.7M7.8 72.9h43.7M7.8 74h43.7M29.6 32.9H11.7l9-4.7 8.9-4.6 9 4.6 8.9 4.7"/><path fill="#5EB8B7" d="M46.4 47.2V37.1h2.7M22.3 8.2l-.8 1.2m13.7-2.8V7M24 7c0-.8.2-1.6.5-2.3m-12 29.5h.3v.7c0-.1.1-.1.1-.2l.3-.6h.3l-.4.7.4 1h-.3l-.3-.7-.1.2v.5h-.3v-1.6zm2.6 1h-.4v.4h.5v.3h-.8v-1.7h.8v.3h-.5v.3h.4m1-.6h.3v1.3h.5v.4h-.8m1.7-1.7h.3v1.3h.5v.4h-.8m2.7-.9c0 .6-.3.9-.6.9-.4 0-.6-.4-.6-.9s.2-.9.6-.9c.4.1.6.4.6.9m-.9 0c0 .3.1.6.3.6.2 0 .3-.3.3-.6s-.1-.6-.3-.6c-.2.1-.3.3-.3.6m2.9.8c-.1 0-.3.1-.4.1-.2 0-.4-.1-.5-.2-.1-.1-.2-.4-.2-.6 0-.6.3-.9.7-.9.2 0 .3 0 .3.1l-.1.3c-.1 0-.2-.1-.3-.1-.2 0-.4.2-.4.5s.2.5.4.5h.1v-.4H22v-.3h.5v1zm2 0c-.1 0-.3.1-.4.1-.2 0-.4-.1-.5-.2-.1-.1-.2-.4-.2-.6 0-.6.3-.9.7-.9.2 0 .3 0 .3.1l-.1.3c-.1 0-.2-.1-.3-.1-.2 0-.4.2-.4.5s.2.5.4.5h.1v-.4H24v-.3h.5v1zm3.1-.6v-.7c0 .2-.1.5-.1.7l-.2.7h-.2l-.1-.6c0-.2-.1-.4-.1-.7v1.3h-.3l.1-1.7h.3l.1.6c0 .2.1.4.1.6 0-.2.1-.4.1-.6l.1-.6h.4l.1 1.7h-.3v-.7zm1.5-1v1c0 .3.1.4.2.4s.2-.1.2-.4v-1h.3v.9c0 .5-.2.8-.5.8s-.5-.2-.5-.8v-.9h.3zm1.8 1.3c.1.1.2.1.3.1.1 0 .2-.1.2-.2s-.1-.2-.2-.2c-.2-.1-.3-.3-.3-.5 0-.3.2-.5.5-.5.1 0 .2 0 .3.1l-.1.3s-.1-.1-.3-.1c-.1 0-.2.1-.2.2s.1.2.2.2c.2.1.3.3.3.5 0 .3-.2.5-.5.5-.1 0-.3-.1-.4-.1l.2-.3zm1.7-1.3h.3v1.7h-.3zm2.1 1.6c-.1 0-.2.1-.3.1-.4 0-.7-.4-.7-.8 0-.6.3-.9.7-.9.1 0 .3 0 .3.1l-.1.3c-.1 0-.1-.1-.2-.1-.2 0-.4.2-.4.6 0 .3.1.5.4.5.1 0 .2 0 .2-.1l.1.3zm3 0c-.1 0-.2.1-.3.1-.4 0-.7-.4-.7-.8 0-.6.3-.9.7-.9.1 0 .3 0 .3.1l-.1.3c-.1 0-.1-.1-.2-.1-.2 0-.4.2-.4.6 0 .3.1.5.4.5.1 0 .2 0 .2-.1l.1.3zm1.6-.6h-.4v.4h.5v.3h-.8v-1.7h.8v.3h-.5v.3h.4m1 1.1v-1.7h.3l.3.6c.1.2.1.4.2.6v-1.2h.3v1.7h-.3l-.3-.6c-.1-.2-.2-.4-.2-.6v1.2h-.3zm2.3-1.4h-.4v-.3h1v.3h-.3v1.4h-.3m2.2-.7h-.4v.4h.5v.3h-.8v-1.7h.8v.3h-.5v.3h.4m1-.6h.4c.2 0 .3 0 .4.1.1.1.1.2.1.4s-.1.4-.2.4c.1 0 .1.2.2.3 0 .2.1.4.1.5h-.3s-.1-.2-.1-.4-.1-.3-.2-.3h-.1v.7h-.3v-1.7zm.3.7h.1c.1 0 .2-.1.2-.2 0-.2-.1-.2-.2-.2h-.1v.4z"/></svg>