<svg xmlns="http://www.w3.org/2000/svg" xmlns:xlink="http://www.w3.org/1999/xlink" width="80" height="80"><path fill-rule="evenodd" clip-rule="evenodd" fill="#6E675F" d="M12.9 68.5h52.5v7.6H12.9v-7.4c0-.1-.1-.2 0-.2zm0-22.6h52.5v7.6H12.9v-7.4s-.1-.2 0-.2zm0-9.2c17.5 0 35 3.8 52.5 3.8v3.8H12.9v-3.6c0-.1-.1-3.9 0-4z"/><path d="M59.2 21.5c-3.4-4-8.2-7.1-14.1-8.6-2.6-.3-5.2-.6-7.8-.8h-.2c-.2 0-.3.1-.5.1h-.3c-.1 0-.2.1-.4.1-.2.1-.3.1-.5.1-7.1 1.1-12.5 4.5-16.3 9-3.8 4.5-6.6 10.7-6.2 19h52.6c.3-8.2-2.5-14.4-6.3-18.9zM5.3 42.4H73V50H5.3v-7.4c-.1-.1-.1-.2 0-.2zm7.5 9.4h7.5c-.1 6.3.1 12.7-.1 18.9-2.5-.1-5.2.1-7.5-.1V52.1c.1-.2 0-.3.1-.3zm15.1 0h7.5v18.9c-2.5-.1-5.2.1-7.6-.1V52.1c0-.2 0-.3.1-.3zm15.1 0h7.5v18.8c-2.4.2-5.1 0-7.6.1V52.1c0-.2 0-.3.1-.3zm15 0h7.5c-.1 6.3.1 12.7-.1 18.9-2.5-.1-5.2.1-7.5-.1V52.1c0-.2 0-.3.1-.3zM5.3 72.5H73V80H5.3v-7.3c-.1-.1-.1-.2 0-.2z" fill-rule="evenodd" clip-rule="evenodd" fill="#D8D8D8"/><path fill="#6E675F" d="M38.8 2h1.7v15.9h-1.7z"/><path fill="#6E675F" d="M42.2 19.3v-.8c0-.5-.4-.8-.8-.8H38c-.5 0-.8.4-.8.8v.8h5zM41.3 2c0-.9-.7-1.7-1.7-1.7-.8.1-1.6.8-1.6 1.7 0 .9.7 1.7 1.7 1.7.9 0 1.6-.8 1.6-1.7"/><g opacity=".3"><defs><path id="a" d="M38.8 3.5h1.7v1.1h-1.7z"/></defs><clipPath id="b"><use xlink:href="#a" overflow="visible"/></clipPath><path clip-path="url(#b)" fill="#010101" d="M39.7 3.7c-.3 0-.6-.1-.8-.2v.8c.2.1.5.2.8.2.3 0 .6-.1.8-.2v-.8c-.2.1-.5.2-.8.2"/></g><path fill="#5BB7B7" d="M40.5 3.7H53v5.8H40.5z"/><path fill="#BE2126" d="M40.5 9.5H53v5.8H40.5z"/><path fill="#5BB7B7" d="M62.1 12H50.5V6.2h13.3"/><path fill="#BE2126" d="M63.8 17.8H50.5V12h11.6"/><g opacity=".3"><defs><path id="c" d="M38.8 10.4h1.7v7.5h-1.7z"/></defs><clipPath id="d"><use xlink:href="#c" overflow="visible"/></clipPath><path clip-path="url(#d)" fill="#010101" d="M38.8 17.1h1.7v.7h-1.7z"/></g><path fill="#6E675F" d="M50.6 6.2L53 3.7v2.5"/></svg>