<svg xmlns="http://www.w3.org/2000/svg" width="80" height="80"><path fill="#F1F0F1" stroke="#5eb8b7" stroke-width="2.865" stroke-miterlimit="10" d="M72.9 28.9c.2-.8.4-1.6.4-2.5 0-4.9-4-8.9-8.9-8.9-.8 0-1.6.1-2.3.3-1.4-4-5.2-6.8-9.6-6.8-2.5 0-4.8.9-6.5 2.4-1.7-.9-3.7-1.4-5.7-1.4-2.9 0-5.6 1-7.6 2.7-1.3-.5-2.8-.8-4.3-.8-4.9 0-9 3-10.8 7.2-.8.4-1.5.8-2.2 1.2-5 0-9.1 4.1-9.1 9.1 0 .5.1 1 .1 1.4C4 35 2.5 38.2 2.5 41.7c0 6.7 5.4 12.1 12.1 12.1.7 0 1.5-.1 2.2-.2 2 1 4.2 1.6 6.6 1.6 2.1 0 4.2-.5 6-1.3 2.1 2.5 5.2 4 8.7 4 1.5 0 2.9-.3 4.2-.8 1.3 1.5 3.2 2.5 5.3 2.5 3.1 0 5.8-2.1 6.6-5 2.4 1.4 5.1 2.2 8.1 2.2 8.9 0 16.1-7.2 16.1-16.1-.4-4.7-2.4-8.8-5.5-11.8z"/><path fill="none" stroke="#5eb8b7" stroke-width="2.865" stroke-miterlimit="10" d="M47.3 13.6s-5.4 2.2-5.4 13m-6.4-4.8s4.2.3 7.6-3.1m-14 34.8s6.6-2.3 4-11.8m.3 5.6s2.3-3.8 5.8-2.4M7.7 33s6.6-4.1 12 0 2.3 5.3 5.4 6m-.1-9.2s-.3 5-5.4 3.2m-3.1 20.2s4.3-4.7-1.6-8.5m32-7.6s1.7 2.6 5.5 2.4 3.8-5.8 9.1-4.6m7.8 19.8s-3.3-4.6-2.1-9.9m-5.8 1.7s4.2-.8 5.5 2.7m-5.5-23.1s-2.3-3.2.5-8.6M54.2 24s5.9.3 6.5-2.2"/><path fill="#60B9B7" stroke="#5eb8b7" stroke-width="2.865" stroke-miterlimit="10" d="M75 49.7c-2.9 4.1-7.7 6.7-13.1 6.7-3 0-5.7-.8-8.1-2.2-.5 1.7-1.6 3.2-3.1 4 0 0 10.6 5.4 17.4 2.7 7.3-2.7 6.9-11.2 6.9-11.2z"/><path fill="#F1F0F1" stroke="#5eb8b7" stroke-width="2.865" stroke-miterlimit="10" d="M60.5 56.4c-.9-.1-1.8-.2-2.6-.5-1.2 2-3.4 3.3-5.8 3.3-.8 0-1.6-.2-2.4-.4-.7.3-1.5.4-2.4.4-.3 0-.6 0-.8-.1l.1.1s-.6 5.6 9.3 10.2c1.4.6 4.5 5.5 6 5.3 2.3-.3 4.9-2.5 4.4-4.7l-2.6-5.8-3.2-7.8z"/></svg>