<svg xmlns="http://www.w3.org/2000/svg" width="80" height="80"><path fill="#D8D8D8" d="M50.4 41.9c-.3.2-1.3-.4-1.4-.5l-1.9-2.5c-.1-.1.1-.4.4-.6l2.1-1.6c.3-.2.6-.3.6-.2l1.9 2.5c.1.1.3 1.4.1 1.6l-.5.5-1.3.8z"/><path fill="#1674BB" d="M50.3 34.9l-4.9 3.8c-.7.5-.8 1.5-.3 2.1.5.7 1.5.8 2.1.3l4.9-3.8c.7-.5.8-1.5.3-2.1-.5-.7-1.5-.8-2.1-.3zM21.9 66.7c-.7.1-1.2.9-1 1.7l.2 1.2c.1.8.8 1.3 1.5 1.2l9.3-1.6c.7-.1 1.2-.9 1-1.7l-.2-1.2c-.1-.8-.8-1.3-1.5-1.2l-9.3 1.6zm4.9-63.5l-1.5.9c-.7.4-.9 1.3-.5 2s1.3.9 2 .5l1.5-.9c.7-.4.9-1.3.5-2s-1.3-.9-2-.5zM29 15.5c-.7-1-2.1-1.2-3.2-.5L24 16.2c-1.1.7-1.5 2.2-.9 3.2l8.6 13.1c.7 1 2.1 1.2 3.2.5l1.8-1.2c1.1-.7 1.5-2.2.9-3.2L29 15.5z"/><path fill="#D8D8D8" d="M14.6 47.8c0 6.2 2 13.8 6.3 20.1 2.9-.8 6.7-1.7 11.5-2.2-5-4.5-7.5-12.5-7.5-17.9 0-6.9 2.3-15.4 7.6-18.8l-5.7-8.6c-9 5.9-12.2 18-12.2 27.4m0 25h47.5c.9 0 1.1-.3.2-.6 0 0-7.7-5.8-24-5.3-16.5.6-24 5.3-24 5.3"/><path fill="#1674BB" d="M12 79.8h53.8c.9 0 1.5-.8 1.3-1.7v-4.4c-3.5-1.6-5.3-1.8-6.1-1.3H14.4"/><path fill="#6E675F" d="M61.2 55.3H25.7c-1 0-1.7.4-1.7 1 0 .5.8 1 1.7 1h35.6"/><path fill="#D8D8D8" d="M35 5.4c-1.3-1.9-4-2.3-6.2-.9l-3.4 2.2c-2.2 1.4-2.9 4.1-1.6 6l16.5 25c1.3 1.9 4 2.3 6.2.9l3.4-2.2c2.2-1.4 2.9-4.1 1.6-6L35 5.4zm-9.7-.3c-.3.2-.6.3-.6.2l-1.9-2.5c-.1-.1.1-.4.4-.6L25.3.6c.3-.2.6-.3.6-.2L27.8 3c.1.1-.1.4-.4.6l-2.1 1.5z"/><circle fill="#1674BB" cx="20.8" cy="38.2" r="7.7"/><circle fill="none" stroke="#D8D8D8" stroke-width="2.354" stroke-miterlimit="10" cx="20.8" cy="38.2" r="4.1"/><path fill="#1674BB" d="M61.2 55.9H25.4c-1 0-1.5-.1-1.5.5s.5 1.5 1.5 1.5h35.8"/></svg>