<svg xmlns="http://www.w3.org/2000/svg" xmlns:xlink="http://www.w3.org/1999/xlink" width="80" height="80"><path fill="#E1BE23" d="M78.7 73.5c0 2.7-2.2 4.9-4.9 4.9h-68c-2.7 0-4.9-2.2-4.9-4.9V15.2c0-2.7 2.2-4.9 4.9-4.9h68c2.7 0 4.9 2.2 4.9 4.9v58.3z"/><path fill="#867878" d="M3.4 73.5l36.4 2.4V7.8L3.4 5.5m72.8 68l-36.4 2.4V7.8l36.4-2.3"/><path fill="#F0EDED" d="M5.9 71.1l33.9 4.8V5.5L5.9.7"/><g opacity=".2"><defs><path id="a" d="M10.7 12.8H35v51H10.7z"/></defs><clipPath id="b"><use xlink:href="#a" overflow="visible"/></clipPath><path clip-path="url(#b)" fill="#010101" d="M10.7 12.8v2.4L35 20.1v-2.4m-24.3 4.8L35 27.4v-2.5l-24.3-4.8m0 9.7L35 34.6v-2.4l-24.3-4.8m0 9.7L35 41.9v-2.4l-24.3-4.9m0 9.8L35 49.2v-2.4l-24.3-4.9m0 9.7L35 56.5v-2.4l-24.3-4.9m0 9.7L35 63.8v-2.5l-24.3-4.8"/></g><path fill="#F0EDED" d="M73.8 71.1l-34 4.8V5.5l34-4.8"/><g opacity=".2"><defs><path id="c" d="M44.7 12.8H69v51H44.7z"/></defs><clipPath id="d"><use xlink:href="#c" overflow="visible"/></clipPath><path clip-path="url(#d)" fill="#010101" d="M69 12.8v2.4l-24.3 4.9v-2.4M69 22.5l-24.3 4.9v-2.5L69 20.1m0 9.7l-24.3 4.8v-2.4L69 27.4m0 9.7l-24.3 4.8v-2.4L69 34.6m0 9.8l-24.3 4.8v-2.4L69 41.9m0 9.7l-24.3 4.9v-2.4L69 49.2m0 9.7l-24.3 4.9v-2.5L69 56.5"/></g></svg>