<svg xmlns="http://www.w3.org/2000/svg" width="80" height="80" viewBox="0 0 80 80"><path fill="#EB6A24" d="M57.9 17.6l-3.6 1c-1.1-1.9-2.5-3.7-4.1-5.2l1.8-3.3c.8-1.4.3-3.2-1.1-4l-5.2-2.9c-1.4-.8-3.2-.3-4 1.1l-1.8 3.3c-2.1-.6-4.3-.8-6.6-.8l-1-3.6c-.4-1.6-2.1-2.5-3.7-2.1l-5.7 1.6c-1.6.4-2.5 2.1-2.1 3.7l1 3.6c-1.9 1.1-3.7 2.5-5.2 4.1l-3.3-1.8c-1.4-.8-3.2-.3-4 1.1l-2.9 5.2c-.8 1.4-.3 3.2 1.1 4l3.3 1.8c-.6 2.1-.8 4.3-.8 6.6l-3.6 1c-1.6.4-2.5 2.1-2.1 3.7l1.6 5.7c.4 1.6 2.1 2.5 3.7 2.1l3.6-1c1.1 1.9 2.5 3.7 4.1 5.2L15.5 51c-.8 1.4-.3 3.2 1.1 4l5.2 2.9c1.4.8 3.2.3 4-1.1l1.8-3.3c2.1.6 4.3.8 6.6.8l1 3.6c.4 1.6 2.1 2.5 3.7 2.1l5.7-1.6c1.6-.4 2.5-2.1 2.1-3.7l-1-3.6c1.9-1.1 3.7-2.5 5.2-4.1l3.3 1.8c1.4.8 3.2.3 4-1.1l2.9-5.2c.8-1.4.3-3.2-1.1-4l-3.3-1.8c.6-2.1.8-4.3.8-6.6l3.6-1c1.6-.4 2.5-2.1 2.1-3.7l-1.6-5.7c-.5-1.7-2.1-2.6-3.7-2.1M36.1 39c-4.7 1.3-9.6-1.5-11-6.2-1.3-4.7 1.4-9.6 6.2-11 4.7-1.3 9.6 1.5 11 6.2 1.3 4.8-1.4 9.7-6.2 11"/><path fill="#6E675F" d="M73.7 62.7l-1.9-.3c-.1-1.1-.4-2.2-.8-3.3l1.5-1.1c.7-.5.8-1.4.3-2.1L71 53.6c-.5-.7-1.4-.8-2.1-.3l-1.5 1.1c-.9-.7-1.8-1.3-2.9-1.7l.3-1.9c.1-.8-.5-1.6-1.3-1.7l-3-.4c-.8-.1-1.6.5-1.7 1.3l-.3 1.9c-1.1.1-2.2.4-3.2.8l-1.1-1.5c-.5-.7-1.4-.8-2.1-.3l-2.4 1.8c-.7.5-.8 1.4-.3 2.1l1.1 1.5c-.7.9-1.3 1.8-1.7 2.9l-1.9-.2c-.8-.1-1.6.5-1.7 1.3l-.4 3c-.1.8.5 1.6 1.3 1.7l1.9.3c.1 1.1.4 2.2.8 3.2l-1.5 1.1c-.7.5-.8 1.4-.3 2.1l1.8 2.4c.5.7 1.4.8 2.1.3l1.5-1.1c.9.7 1.8 1.3 2.9 1.7l-.3 1.9c-.1.8.5 1.6 1.3 1.7l3 .4c.8.1 1.6-.5 1.7-1.3l.3-1.9c1.1-.1 2.2-.4 3.2-.8l1.1 1.5c.5.7 1.4.8 2.1.3l2.4-1.8c.7-.5.8-1.4.3-2.1l-1.1-1.5c.7-.9 1.3-1.8 1.7-2.9l1.9.3c.8.1 1.6-.5 1.7-1.3l.4-3c.1-.9-.4-1.6-1.3-1.8m-14.4 5.6c-2.5-.3-4.2-2.6-3.9-5.1.3-2.5 2.6-4.2 5.1-3.9 2.5.3 4.2 2.6 3.9 5.1-.4 2.5-2.7 4.3-5.1 3.9"/></svg>