<svg xmlns="http://www.w3.org/2000/svg" width="80" height="80" viewBox="0 0 80 80"><path fill="#E1BF23" d="M19.7 73.9l-1.6 1.5c1 1.1 2.2 2 3.5 2.6 2 .9 4.1 1.2 6.2.9 1.1-.2 2.1-.5 3.1-.9 1-.5 1.9-1.1 2.8-1.8L64 48.5c1.1-1 2-2.2 2.6-3.5.9-2 1.2-4.1.9-6.2-.2-1.1-.5-2.1-.9-3.1-.5-1-1.1-1.9-1.8-2.8l-2.5-2.7c-1-1.1-2.2-2-3.5-2.6-2-.9-4.1-1.2-6.2-.9-1.1.2-2.1.5-3.1.9-1 .5-1.9 1.1-2.8 1.8L16.4 57.1c-1.1 1-2 2.2-2.6 3.5-.9 2-1.2 4.1-.9 6.2.2 1.1.5 2.1.9 3.1.5 1 1.1 1.9 1.8 2.8l2.5 2.7 1.6-1.5 1.6-1.5-2.5-2.7c-.6-.7-1.1-1.4-1.3-2.3-.4-1.2-.5-2.5-.2-3.8.2-.6.4-1.2.7-1.8.3-.6.7-1.1 1.3-1.5l30.3-27.6c.7-.6 1.4-1.1 2.3-1.3 1.2-.4 2.5-.5 3.8-.2.6.2 1.2.4 1.8.7.6.3 1.1.7 1.5 1.3l2.5 2.7c.6.7 1.1 1.4 1.3 2.3.4 1.2.5 2.5.2 3.8-.2.6-.4 1.2-.7 1.8-.3.6-.7 1.1-1.3 1.5L30.7 72.9c-.7.6-1.4 1.1-2.3 1.4-1.2.4-2.5.5-3.8.2-.6-.2-1.2-.4-1.8-.7-.6-.3-1.1-.7-1.5-1.3l-1.6 1.4z"/><path fill="#E1BF23" d="M41.8 72.2c.1.2.4.2.5.1l2.7-2.5c.1-.1.1-.3-.1-.5l-20-22c-.1-.2-.4-.2-.5-.1l-2.7 2.5c-.1.1-.1.3.1.5l20 22zm5.1-4.4c.1.2.4.2.5.1l2.7-2.5c.1-.1.1-.3-.1-.5l-20-22c-.1-.2-.4-.2-.5-.1l-2.7 2.5c-.1.1-.1.3.1.5l20 22zm5-4.6c.1.2.4.2.5.1l2.7-2.5c.1-.1.1-.3-.1-.5l-20-22c-.1-.2-.4-.2-.5-.1l-2.7 2.5c-.1.1-.1.3.1.5l20 22z"/><path fill="#E1BF23" d="M53.4 52.3l-19 17.3c-.3.3-.6.5-1 .6-.5.2-1.1.2-1.7.1-.3-.1-.5-.2-.8-.3-.2-.1-.5-.3-.7-.6l-1 .9-1 .9c.5.6 1.1 1 1.8 1.3 1 .5 2.1.6 3.1.5.5-.1 1.1-.2 1.6-.5.5-.2 1-.5 1.4-.9l19-17.3c.6-.5 1-1.1 1.3-1.8.5-1 .6-2.1.5-3.1M49 45.1c-.5.2-1 .5-1.4.9l-19 17.3c-.6.5-1 1.1-1.3 1.8-.5 1-.6 2.1-.5 3.1.1.5.2 1.1.5 1.6.2.5.5 1 .9 1.4l2-1.8-.4-.4-.4-.4c-.2-.3-.6-.4-.9-.4-.3 0-.7.1-1 .3-.3.2-.4.6-.4.9 0 .3.1.7.3 1 0 0 .2.2.7.8l1-.9 1-.9c-.3-.3-.4-.5-.5-.6l-.2-.2c-.2-.3-.6-.4-.9-.4-.3 0-.7.1-1 .3-.3.2-.4.6-.4.9 0 .3.1.7.3 1l.7.8 2-1.8c-.3-.3-.5-.6-.6-1-.2-.5-.2-1.1-.1-1.7.1-.3.2-.5.3-.8.1-.2.3-.5.6-.7l19-17.3"/><path fill="#E1BF23" d="M50.8 43.2c.2-.1.7.2 1.2.7.5.5.8 1.1.6 1.2L48 49.3c-.2.1-.7-.2-1.2-.7-.5-.5-.8-1.1-.6-1.3"/><path fill-rule="evenodd" clip-rule="evenodd" fill="#E1BF23" d="M46.8 29.4c9.3-8 13.6-15.3 15.3-23.5.2-1.1.4-2.5.8-3.5 1-2.5 3.5 1.1 5.1 2.9 2.8 3.1 4.7 5.1 7.5 8.2 1.5 1.6 3.1 3.1 2.4 4-.6.8-2.3.7-3.3.8-6.7.7-13.4 3-20.2 8.3-1.1.9-2.3 2.3-3.4 2.9-.5.3-1.4 0-2.1 0-.8.1-1.6.3-2.1-.1z"/><path fill="#E1BE23" d="M18.2 57.3c.5.5.6 1.3.2 1.6l-10.9 10c-.4.4-1.1.2-1.6-.3s-.6-1.3-.2-1.6l10.9-10c.4-.4 1.1-.2 1.6.3z"/><path fill-rule="evenodd" clip-rule="evenodd" fill="#706960" d="M6.6 66.1c1.4-1.4-.8.6.1 1.7s3.1-1.2 2 .2c-.5.6-.3 1.9-.8 2.8-.6 1.3-1.9 2-2.9 2.7-1.3-1-3.2-3.1-4.1-4.5 1.5-2.3 4-3 5.7-2.9zm15.6-16.7c.1.1.4.2.5 0l1.5-1.4c.1-.1.2-.4 0-.5l-.8-.8c-.1-.1-.3-.2-.5 0l-1.5 1.4c-.1.1-.2.4 0 .5l.8.8zm5-4.4c.1.1.3.2.5 0l1.5-1.4c.1-.1.2-.3 0-.5l-.8-.8c-.1-.1-.4-.2-.5 0l-1.5 1.4c-.1.1-.2.4 0 .5l.8.8zm5-4.5c.1.1.4.2.5 0l1.5-1.4c.1-.1.2-.4 0-.5l-.8-.8c-.1-.1-.4-.2-.5 0l-1.5 1.4c-.1.1-.2.4 0 .5l.8.8z"/><path fill-rule="evenodd" clip-rule="evenodd" fill="#E1BF23" d="M21.1 49.1c.1.1.4.2.5 0L24 47c.1-.1.2-.3 0-.5L22.6 45c-.1-.1-.4-.2-.5 0l-2.4 2.2c-.1.1-.2.4 0 .5l1.4 1.4zm5-4.5c.1.1.3.2.5 0l2.4-2.2c.1-.1.2-.4 0-.5l-1.3-1.5c-.1-.1-.3-.2-.5 0l-2.4 2.2c-.1.1-.2.3 0 .5l1.3 1.5zm5-4.5c.1.1.3.2.5 0L34 38c.1-.1.2-.4 0-.5L32.7 36c-.1-.1-.4-.2-.5 0l-2.4 2.2c-.1.1-.2.3 0 .5l1.3 1.4z"/><path fill-rule="evenodd" clip-rule="evenodd" fill="#706960" d="M5.2 67.3l2.5 1.4 2.7-2.5-1.8-1.9"/></svg>