<svg xmlns="http://www.w3.org/2000/svg" xmlns:xlink="http://www.w3.org/1999/xlink" width="80" height="80" viewBox="0 0 80 80"><path fill="#6E675F" d="M57.2 27V7.6c0-3.5-2.8-6.3-6.3-6.3H28.7c-3.5 0-6.3 2.8-6.3 6.3V27h34.8zM22.6 70.6c0 2.1-.6 3.7-1.4 3.7H2.4c-.7 0-1.4-1.7-1.4-3.7V33.2c0-2.1.6-3.7 1.4-3.7h18.9c.7 0 1.4 1.7 1.4 3.7v37.4zm56.5 0c0 2.1-.6 3.7-1.4 3.7H58.8c-.7 0-1.4-1.7-1.4-3.7V33.2c0-2.1.6-3.7 1.4-3.7h18.9c.7 0 1.4 1.7 1.4 3.7v37.4z"/><path fill="#EA6A25" d="M61 72.5c0 2.3-1.2 4.1-2.6 4.1H21.7c-1.4 0-2.6-1.9-2.6-4.1V31.2c0-2.3 1.2-4.1 2.6-4.1h36.6c1.4 0 2.6 1.9 2.6 4.1v41.3z"/><path fill="#FFF" d="M58.3 54.2c0 10.3-8.3 18.6-18.6 18.6s-18.6-8.3-18.6-18.6 8.3-18.6 18.6-18.6S58.3 44 58.3 54.2"/><path fill="#6E675F" d="M54.2 54.2c0 8-6.5 14.5-14.4 14.5-8 0-14.4-6.5-14.4-14.5s6.5-14.4 14.4-14.4 14.4 6.4 14.4 14.4"/><path fill="#D8EEF5" d="M48 54.2c0 4.6-3.7 8.3-8.3 8.3-4.6 0-8.3-3.7-8.3-8.3s3.7-8.3 8.3-8.3c4.6.1 8.3 3.8 8.3 8.3"/><path fill="#EFEEEE" d="M36.7 48c-1.7 0-3.1 1.4-3.1 3.1 0 1.7 1.4 3.1 3.1 3.1 1.7 0 3.1-1.4 3.1-3.1 0-1.7-1.4-3.1-3.1-3.1m6.1 8.3c-.6 0-1 .5-1 1 0 .6.5 1 1 1 .6 0 1-.5 1-1 .1-.5-.4-1-1-1"/><path fill="#EB6A24" d="M65.4 25.3h8.2v4.1h-8.2z"/><path fill="#D8EEF5" d="M54 21.1c0 1.7-1.4 3.2-3.2 3.2H28.7c-1.7 0-3.2-1.4-3.2-3.2V8c0-1.7 1.4-3.2 3.2-3.2h22.2C52.6 4.8 54 6.3 54 8v13.1z"/><g opacity=".1"><defs><path id="a" d="M28.7 4.8h22.2v19.4H28.7z"/></defs><clipPath id="b"><use xlink:href="#a" overflow="visible"/></clipPath><path clip-path="url(#b)" fill="#010101" d="M28.7 4.8h3.2v19.4h-3.2zm6.3 0h3.2v19.4H35zm6.3 0h3.2v19.4h-3.2zm6.4 0h3.2v19.4h-3.2z"/></g></svg>