<svg xmlns="http://www.w3.org/2000/svg" width="80" height="80" viewBox="0 0 80 80"><g fill="#BE2629"><path d="M65.9 47c0-.1 0-.1 0 0 0-.1 0-.1 0 0 0-.1.1-.2.2-.2.2-.1.5-.2.7-.2.3-.1.6-.1.9-.2.1 0 .2-.1.3-.1 0 0 .1 0 .1-.1.1 0 .1-.1.1-.1.2-.1.3-.2.4-.3.1-.1.1-.1.1-.2v-.5c0-.1 0-.1-.1-.2s-.1-.2-.2-.3c-.2-.2-.4-.4-.5-.6-.1-.1-.1-.2-.2-.3 0-.1-.1-.2-.1-.3V43c0-.3.1-.5.2-.8.1-.2.2-.4.3-.7 0-.1.1-.2.2-.3.1 0 .1-.1.2-.1.2-.1.4-.1.5-.2.1 0 .2 0 .4-.1.2 0 .3-.1.5-.2s.3-.1.5-.2c.7-.3 1.4-.5 2.1-.7.3-.1.6-.1.9-.2.8-.1 1.6-.1 2.4 0 .2 0 .5.1.7.1.3 0 .5.1.8.1.4.1.7.1 1.1.1-.6.2-1.2.4-1.8.5l-.9.3c-.3.1-.7.3-1 .4-.3.2-.6.3-1 .5l-.1.1c0 .1.1.1.1.1h.9c.2 0 .4.1.6.1l.6.3.6.6c.2.2.5.4.7.6.2.2.5.4.7.6.2.1.3.2.5.3-.9 0-1.9.1-2.8.3-.6.1-1.1.2-1.7.4-.5.1-1 .3-1.6.4-.3.1-.7.2-1 .4-.4.2-.8.3-1.2.5-.4.2-.8.3-1.3.5-.4.1-.8.3-1.3.3-.3.1-.6.1-1 .1h-.3c-.1 0-.2-.1-.3-.1.3.1.2.1.1 0z"/><path d="M65.2 45.6c-.4.1-.9.1-1.3.1h-1.2c-.7-.1-1.4-.2-2-.4-.7-.2-1.3-.4-2-.7-1-.4-2.1-.9-3.1-1.3-.6-.3-1.3-.5-2-.7-.6-.2-1.2-.4-1.8-.5-.3-.1-.6-.1-.9-.1h-.7c-.1 0-.1 0-.2.1.1-.3.2-.5.2-.8.1-.2.1-.4.2-.6.1-.2.1-.4.2-.6.1-.4.2-.8.1-1.2 0-.1 0-.2-.1-.2 0-.1-.1-.1-.1-.2-.1-.1-.1-.2-.2-.4 0-.1-.1-.1-.1-.2v-.4c0-.1.1-.1.1-.2s.1-.1.2-.2.1-.1.2-.1c.1-.1.3-.1.4-.1h1c.7.1 1.3.2 2 .4.3.1.5.2.8.2.1 0 .2.1.3.1l.9.3c1.2.4 2.5.8 3.7 1.1 1.2.4 2.5.7 3.8.9.4.1.9.1 1.3.1s.8 0 1.2-.1c.2 0 .4-.1.6-.1.1 0 .2-.1.3-.1.3-.1.5-.2.8-.2h.7l.1.1v.3c0 .1-.1.3-.1.4-.1.3-.3.7-.5 1-.1.2-.2.3-.2.5-.1.2-.2.4-.3.7-.1.2-.1.5-.1.7v.4c0 .1.1.2.1.3.1.2.2.3.4.5l.4.4c.1.1.1.1.1.2-.1 0-.1 0-.2-.1h-.4c-.2 0-.4.1-.5.1l-.9.3c-.1 0-.2.1-.3.1-.3.1-.6.2-.9.2z"/></g><path fill="#BD2428" d="M39.5 45.1c2.2 0 1.2-4.3 3.4-4.3 1.5 0 1.3-1.5 2.7-1.8 3.7-1 11.1 1.1 14.4-.9 1.7-1 2.1.7 3.3 1.9 2.7 2.6 1.7 8.6.4 11.5-.8 1.7-1.8 3.1-2.5 4.8-1.2 3-3.2 3.6-5.5 3.5-2.8-.2-5.7.2-8.5.2-2 0-3.5-.3-4.4-3-1.3-4-1.3-8.3-3.3-11.9"/><path fill-rule="evenodd" clip-rule="evenodd" fill="#D8D8D8" d="M36.5 33.2c11.4 3.4 21.4 1.9 28.6-1.7 0 3.6 1.2 10.4.7 15.4-.8 8.6-8.3 18.5-16.2 15.8-11.3-3.9-12.9-17.4-13.1-29.5zm25.8 7.2c-2 .7-4.1 1.7-7.8.9-.1 4 8.5 3.4 7.8-.9zm-13.5.7c-1.6.3-4.4 1.9-7.8 1 .1 4.3 9 2.8 7.8-1zm8.7 13.7c.9-8.7-14.9-6-10.7 2 1.9-2.6 6.5-3.3 10.7-2z"/><path fill="#1674BB" d="M31.9 40.5c-.5.2-1 .3-1.5.4-.5.1-1 .1-1.5.2-.8 0-1.7 0-2.5-.1s-1.6-.3-2.4-.4c-1.3-.3-2.6-.7-3.9-1-.8-.2-1.6-.4-2.4-.5-.7-.1-1.5-.3-2.2-.3h-1.1c-.3 0-.6.1-.9.2-.1 0-.1.1-.2.1 0-.3.1-.7.1-1 0-.3.1-.5.1-.8 0-.3.1-.5.1-.8 0-.5.1-1 0-1.4 0-.1-.1-.2-.1-.3 0-.1-.1-.2-.1-.2-.1-.1-.2-.3-.3-.4-.1-.1-.1-.2-.1-.3v-.4c0-.1.1-.2.1-.3 0-.1.1-.2.2-.2.1-.1.2-.1.2-.2.1-.1.3-.2.5-.2.4-.1.8-.2 1.1-.2.8 0 1.6.1 2.4.2.3 0 .6.1.9.1h.4c.4 0 .8.1 1.2.1 1.5.2 3.1.5 4.6.7 1.5.2 3.1.4 4.6.4.5 0 1 0 1.6-.1.5-.1 1-.2 1.4-.3.2-.1.5-.2.7-.2.1-.1.3-.1.4-.2.3-.1.6-.3.9-.4.1 0 .3-.1.4-.1h.3s.1 0 .1.1l.1.1v.3c0 .2 0 .3-.1.5-.1.4-.3.8-.4 1.2-.1.2-.1.4-.2.6-.1.3-.2.6-.2.9 0 .3-.1.6 0 .9 0 .1.1.3.1.4 0 .1.1.2.2.4s.3.4.5.5c.2.1.4.3.6.4.1.1.1.2.2.2h-.3c-.2 0-.3 0-.5.1s-.4.1-.6.2c-.4.2-.7.4-1.1.5-.1.1-.3.1-.4.2-.3.1-.6.3-1 .4z"/><path fill="#1674BB" d="M.9 36c.7-.2 1.4-.4 2.1-.5.7-.1 1.4-.2 2.1-.2h1c.3 0 .7 0 1 .1.7.1 1.4.1 2.1.2h.2c.2 0 .4 0 .6.1h.9c.2 0 .4 0 .6-.1.2 0 .4-.1.5-.1.2-.1.3-.1.5-.2.3-.1.6-.2.8-.4v.1c.1.2.1.4.1.5v1.4c0 .2 0 .3-.1.5-.1.7-.2 1.3-.3 2v.3c0 .2.1.3.3.4.1.1.2.1.2.1.1 0 .2.1.3.1.2.1.5.1.7.1h1.8c.3 0 .5 0 .8.1.1 0 .3.1.4.1.1 0 .1.1.2.1l.1.1v.2s-.1 0-.1.1c-.2.1-.4.1-.6.1h-1.5c-.7-.1-1.3-.1-2-.2-1.6-.2-3.1-.4-4.7-.6-1.4-.2-2.9-.4-4.3-.6-.5-.1-1.1-.1-1.6-.1h-.5c.4-.3.7-.7 1.2-1l.6-.3c.2-.1.4-.2.6-.2.8-.2 1.6-.3 2.4-.4.1 0 .1-.1.1-.1v-.1s-.1 0-.1-.1c-.2 0-.4-.1-.6-.1-.9-.2-1.7-.5-2.6-.6-.2 0-.5 0-.7-.1-.2 0-.5 0-.7-.1-.5 0-.9-.1-1.4-.1H.5c-.2 0-.4 0-.6-.1.4-.2.7-.3 1-.4z"/><path opacity=".3" fill="#231F20" d="M29.1 47.3c0 8.5 3.2 6.1 7.9 4.9 3.8-1 5.3-2.4 7.5-8.1 3-7.9-1.4-11.8-5.6-11.6-4.9.2-9.8 6.3-9.8 14.8z"/><path fill="#1674BB" d="M17.3 35c2.2 0 1.2-4.3 3.4-4.3 1.5 0 1.3-1.5 2.7-1.8 3.7-1 11.1 1.1 14.4-.9 1.7-1 3.3 1.7 4.5 2.9 2.7 2.6.5 7.7-.8 10.5-.8 1.7-1.8 3.1-2.5 4.8-1.2 3-3.2 3.6-5.5 3.5-2.8-.2-5.7.2-8.5.2-2 0-3.5-.3-4.4-3-1.3-4-1.4-8.3-3.3-11.9"/><path fill-rule="evenodd" clip-rule="evenodd" fill="#D8D8D8" d="M15.9 25.4c11.4 3.4 21.4 1.9 28.6-1.7 0 3.6 1.2 10.4.7 15.4-.8 8.6-8.3 18.6-16.2 15.9-11.2-3.9-12.8-17.4-13.1-29.6zm17.8 10.2c2.3-.6 4.5-1.3 7.9-.3.4-4-8.2-4.1-7.9.3zm-13.4.7c1.6-.2 4.5-1.5 7.9-.3.2-4.2-8.8-3.6-7.9.3zm5.6 7.1c-1.7 8.6 14.2 7.4 10.9-.9-2.1 2.3-6.8 2.5-10.9.9z"/></svg>