<svg xmlns="http://www.w3.org/2000/svg" width="147.6" height="285.8"><path d="M121.3 238.6h-22V47.4h22v191.2zm-58-146.4h22v146.2h-22V92.2zm-15 146.4H26.2V135.4h22.1v103.2zM73.8 0h63c1.7 0 3.4-.1 5 .2 3.6.9 5.9 3.3 5.9 7.1s-2.2 6.2-5.8 7.1c-1.6.4-3.3.3-5 .3H11c-1.5 0-3 .1-4.5-.1C2.4 13.9 0 11.4 0 7.4S2.4.9 6.3.2c1.5-.3 3-.2 4.5-.2h63zm0 271h63c1.7 0 3.4-.1 5 .2 3.6.9 5.9 3.3 5.9 7.1s-2.2 6.2-5.8 7.1c-1.6.4-3.3.3-5 .3H11c-1.5 0-3 .1-4.5-.1-3.9-.8-6.3-3.2-6.3-7.2s2.4-6.5 6.3-7.2c1.4-.3 3-.1 4.5-.1 20.8-.1 41.8-.1 62.8-.1zM11.1 32.4v-10h125.2v10H11.1zm0 231v-10.1h125.2v10.1H11.1z" fill="#FFF"/></svg>