<svg xmlns="http://www.w3.org/2000/svg" width="279.7" height="600.2" viewBox="0 0 279.7 600.2"><path d="M211.5 87.2c-4.3 40.1-41.3 60-68.4 60s-64.6-20.5-68.4-60c-3.9-40.1 19-73 68.4-73 49.4.1 72.7 33 68.4 73z"/><path fill="#E8C484" d="M160.4 152.8c-.4 4.9-.2 14.4.5 28.2 13.8 9.6 10.4 66.3 11.2 77.6h-58.9c-9.5-26.2 2.4-70.2 10.1-77.6.6-12 .9-22.4.6-28.2h36.5z"/><path opacity=".3" d="M160.4 152.8c-.2 10-.2 17.4.6 29-14.3-2.7-27.6-12.2-37-23.7v-5.3h36.4z"/><path fill="#E8C484" d="M188.8 98.3c0 22.4-29.4 68.3-46.6 68.3s-46.6-43.2-46.6-68.3c0-30.4 20.9-55 46.6-55s46.6 24.6 46.6 55z"/><path fill="#E8C484" d="M111.4 107.2c.3 8.4-4.4 15.4-10.4 15.6s-11-10.1-11.2-18.5c-.3-8.4 4.2-11.8 10.2-12s11.1 6.4 11.4 14.9zm61.5 0c-.3 8.4 4.4 15.4 10.4 15.6s11-10.1 11.2-18.5c.3-8.4-4.2-11.8-10.2-12s-11.2 6.4-11.4 14.9z"/><path fill="#E8C484" d="M188.8 98.3c0 22.4-29.4 68.3-46.6 68.3V43.3c25.7 0 46.6 24.6 46.6 55z"/><path fill="#7E6C68" d="M215.5 260.9H68.3s3.6-50.9 8.2-57.3c8-11.1 33.8-19.6 46.8-22.6-15.3 32.8 1.7 74.1 18.6 74.1 17 0 33-41.8 19.1-74.1 0 0 36.7 10.5 46.6 24.2 4.6 6.4 7.9 55.7 7.9 55.7z"/><path fill="#EB6A24" d="M95.7 93.1c4.1.1 6.3 5.9 5.6 6.2.6.4 1.5-1.6 1.5-1.6 0-14.3 8.1-35.3 39.6-35.3 32.5 0 41 20.4 41 33.5 0 0 .1 2.7.8 2.3 0-.6.2-3 3.8-3.4 3.6-19.2-4.4-58.1-46.1-57.2-45 1-48.5 39-46.2 55.5z"/><path fill="#7E6C68" d="M215.5 260.9h-73.6v-5.7c17 0 33-41.8 19.1-74.1 0 0 36.7 10.5 46.6 24.2 4.6 6.3 7.9 55.6 7.9 55.6z"/><path fill="#292E34" d="M178.9 98.5c-1.1-1.2-23.1-2.2-25.9-2.1-2.7.1-6.2 2.7-6.1 5.2l.2 5.3s2.6 4.5 5.1 5.7c8.5 3.7 19.7-4.4 26.9-9.8 1.2-.8.6-3.4-.2-4.3zm-21.4 12.9c-1.6.1-3-.2-4.3-.8-1.3-.6-3-2.9-3.9-4.3l-.2-4.8c0-.9 2.1-2.9 4-3 2.7-.1 20.9.8 24.4 1.7.1.3.2.7.2 1-4.8 3.6-13.3 9.9-20.2 10.2zm-52.6-9.1c7.3 5.5 18.5 13.5 26.9 9.8 2.6-1.1 5.1-5.7 5.1-5.7l.2-5.3c.1-2.4-3.3-5.1-6.1-5.2s-24.8.9-25.9 2.1c-.7 1-1.2 3.6-.2 4.3zm1.6-1.5c0-.3.1-.7.2-1 3.4-.9 21.7-1.8 24.4-1.7 1.9.1 4.1 2 4 3l-.2 4.8c-.9 1.4-2.6 3.8-3.9 4.3-1.3.6-2.7.8-4.3.8-7-.3-15.5-6.6-20.2-10.2z"/><circle fill="#DD695D" cx="165.1" cy="180.9" r="4.1"/><circle fill="#DD695D" cx="163.6" cy="189.6" r="4.1"/><circle fill="#EB6A24" cx="159.1" cy="196.8" r="4.1"/><circle fill="#EB6A24" cx="151.8" cy="201.6" r="4.1"/><circle fill="#EB6A24" cx="142" cy="203.2" r="4.1"/><circle fill="#EB6A24" cx="132.4" cy="201.4" r="4.1"/><circle fill="#EB6A24" cx="125.2" cy="196.8" r="4.1"/><circle fill="#EB6A24" cx="120.7" cy="189.8" r="4.1"/><circle fill="#EB6A24" cx="119.1" cy="180.9" r="4.1"/><path fill="none" d="M143.1 0C212.6 0 269 56.4 269 125.9m-251.7 0C17.3 56.4 73.6 0 143.1 0M269 125.9c0 69.5-56.4 125.9-125.9 125.9S17.2 195.4 17.2 125.9"/><path fill="none" stroke="#D8D8D8" stroke-width="10" stroke-miterlimit="10" d="M161 280c31-26.3 34.7-72.6 8.4-103.6"/><path fill="#763D1F" d="M29.8 342.2H253l17.9-113.7h-259M0 569.1l279.4.1-19.5-16.6-236.5-.1m-.4-19.4l237.4.1-25.3-16.6-188.7-.1"/><path fill="#9D6027" d="M45.9 242.5h189.3v286.7H45.9V242.5z"/><path fill="none" stroke="#763D1F" stroke-width="5" stroke-miterlimit="10" d="M66.3 263.5h147.1v241.1H66.3V263.5z"/><circle fill="#BE2327" stroke="#FFF" stroke-width="5" stroke-miterlimit="10" cx="141.9" cy="373.2" r="48"/><path fill="#9D6027" d="M22.9 533h237.3v31.7H22.9V533zM.4 568.5h279.3v31.7H.4v-31.7zM11.9 212h259v17.7h-259V212z"/><circle cx="170.5" cy="178" r="18"/><path d="M118.4 104.2c0 1.4 6.1 2.4 7.5 2.4s2.5-1.1 2.5-2.5-1.1-2.5-2.5-2.5c-1.4.1-7.5 1.2-7.5 2.6zm38.6.1c0 1.4 1.1 2.5 2.5 2.5s6-1.5 6-2.9-4.6-2-6-2c-1.4-.1-2.5 1-2.5 2.4zM130 141c0 1.7 15.5 24 26 3"/><ellipse fill="#FFF" cx="124.6" cy="103.7" rx="1.4" ry="1.6"/><ellipse fill="#FFF" cx="160.1" cy="103.6" rx="1.4" ry="1.6"/><path fill="none" stroke="#292E34" stroke-width="2" stroke-miterlimit="10" d="M135 103.5h13.4M93.7 92.3l11.3 7.1m74.1 1l11.3-7.1"/><path fill="#FFF" d="M142.6 340h-.4c-2.9 1.4-1.5 7-1.5 10.2-1-.8-2-2.4-3.1-3.5-.9-1-2.3-2.8-4.1-1.6 0 2.1 1.5 3.5 2.7 4.6 1.5 1.3 3.5 2.1 4.8 3.5.4 2.4.4 6.1.1 8.4-3.2-2.2-6.8-5.5-10.3-7.9-1.6-1.1-4-3.1-6-1.6.6 3.2 3.5 4.2 5.4 6-.5.3-1.4-.3-2.4-.5-2.4-.4-5.3-.5-5.4 1.7 2.5 1.7 8 1.3 11.1.5.7.4 1.6.5 2.3.9-2.2 2-6.3 2.1-6.6 6 .1 0 .1.1.1.2 1.8 1.3 3.8-.5 4.9-1.5 1.5-1 2.4-2.5 3.7-3.5 1.4.4 2.5.8 3.3 1.7.3 3.1.3 5.9 0 8.9-5.4-.2-11.2-2.4-16.5-1.9-2 .2-4.5 1.3-3.1 3.5 1.7 2.6 9.1.9 11.8 1.2-.5.6-1.5 1.3-2.5 2.1-1 .9-3.2 3.9-.3 3.9 2.5 0 3.4-4.4 4.4-6.3 1.9-.5 4.1-.7 6-1.2.6 7.2.4 16 .5 23.3-2.4.3-5.3 0-7.9.1 1.8.7 4.6.4 6.6.9-.6 1.6-2.2 2.4-2.8 4 1.5-.9 2.4-2.4 4-3.1.6 2 .5 4.8.7 7.2.5-2 0-5 .5-7.1 1.7.7 2.6 2.3 4.4 3-1-1.4-2.3-2.5-3.3-3.9 1.5-.6 3.9-.5 5.7-.8-2.1-.4-4.9.2-6.8-.4.2-7.6-.1-15.9.4-23.2 1.7 0 4 .5 5.5.9 1.5 2.1 2.4 7.8 6 5.8.1-2.8-2.4-4.1-4.2-5.4 3.1-.4 12.2 1.9 12.3-2.3.1-2.5-3.5-2.4-5.8-2.3-4.6.2-9.9 1.5-13.9 1.9-.2-1.9-.3-6.4 0-9.1.9-.7 1.9-1.3 3.2-1.6 2.5 2.1 3.9 5.2 7.9 5.7 3.2-2.9-4.4-5.5-5.8-6.7.6-.5 1.4-.7 2.2-1 2.1.5 5.1.9 8 .7.9-.1 3-.4 3.1-1.5.1-1.5-2.5-1.8-4.4-1.6-1.5.2-2.5.9-3.2.8.5-.9 1.8-1.6 3-2.6.8-.7 2.6-2 2.3-3.3-.5-1.8-3.7-.1-4.5.5-4.2 2.5-8 6.3-11.5 8.6-.5-2.3-.3-5.9 0-8.2 1.2-1.3 3.3-2.2 4.8-3.5 1.3-1.2 3.5-2.9 2.4-5-.1 0-.2 0-.3-.1-3.6.5-4.4 3.7-6.6 5.7-.4-2.6 1.1-8.2-.9-10.2z"/></svg>