<?xml version="1.0" encoding="utf-8"?>
<!-- Generator: Adobe Illustrator 18.1.0, SVG Export Plug-In . SVG Version: 6.00 Build 0)  -->
<!DOCTYPE svg PUBLIC "-//W3C//DTD SVG 1.1//EN" "http://www.w3.org/Graphics/SVG/1.1/DTD/svg11.dtd">
<svg version="1.1" id="Layer_1" xmlns="http://www.w3.org/2000/svg" xmlns:xlink="http://www.w3.org/1999/xlink" x="0px" y="0px"
	 viewBox="0 0 881.6 493.2" enable-background="new 0 0 881.6 493.2" xml:space="preserve">
<g>
	<g>
		<path opacity="1" fill="#e8db80" d="M863.4,453.4h-16H34.2h-16c-14.9,0-22.1,8.9-16,19.9c6.1,11,22.2,19.9,36.1,19.9h805.1
			c13.9,0,30-8.9,36.1-19.9C885.6,462.3,878.4,453.4,863.4,453.4z"/>
		<path opacity="1" fill="#e8db80" d="M302.7,163.6c22.2-0.1,48.3,44.1,70.5,44.2c22.5,0.1,49.7-44.3,72.2-44.2
			c22.2,0.1,48.3,44.3,70.5,44.2c22-0.1,47.6-44,69.7-44.2c22.7-0.2,50.2,44.4,72.9,44.2c22-0.2,69.2-44.2,69.2-44.2v-35.7
			c0-36.4-5-39.6-42.9-39.6H204.9c-38,0-42.5,3.2-42.5,39.6v35.7c0,0,48.4,44.3,70.7,44.2C255.2,207.7,280.6,163.7,302.7,163.6z
			 M660,173.7c6.9,0,12.6,4.6,12.6,10.3c0,5.7-5.6,10.3-12.6,10.3c-6.9,0-12.6-4.6-12.6-10.3C647.4,178.3,653,173.7,660,173.7z
			 M513.9,173.7c6.9,0,12.6,4.6,12.6,10.3c0,5.7-5.6,10.3-12.6,10.3c-6.9,0-12.6-4.6-12.6-10.3C501.3,178.3,506.9,173.7,513.9,173.7
			z M373.7,173.7c6.9,0,12.6,4.6,12.6,10.3c0,5.7-5.6,10.3-12.6,10.3c-6.9,0-12.6-4.6-12.6-10.3
			C361.1,178.3,366.7,173.7,373.7,173.7z M217,184c0-5.7,5.6-10.3,12.6-10.3c6.9,0,12.6,4.6,12.6,10.3c0,5.7-5.6,10.3-12.6,10.3
			C222.6,194.3,217,189.7,217,184z"/>
		<path opacity="1" fill="#e8db80" d="M727.6,227.8v-52.3c0,0-47.2,44-69.2,44.2c-22.7,0.2-50.3-44.4-73-44.2
			c-22,0.2-47.6,44.2-69.6,44.2c-22.2,0.1-48.3-44.1-70.5-44.2c-22.5-0.1-49.7,44.3-72.2,44.2c-22.2-0.1-48.3-44.3-70.5-44.2
			c-22,0.1-47.5,44.1-69.5,44.2c-22.3,0.1-70.7-44.2-70.7-44.2V264h565.2V227.8z"/>
		<path opacity="1" fill="#e8db80" d="M248.6,316.6c30.6-0.1,66.7,60.9,97.3,61c31.1,0.1,68.5-61.2,99.6-61
			c30.6,0.2,66.7,61.1,97.3,61c30.4-0.1,65.7-60.7,96.1-61c31.3-0.3,69.2,61.3,100.5,61c30.3-0.3,95.4-61,95.4-61V293
			c0-23.2-6.8-29-59.3-29H113.8c-52.4,0-58.6,0.8-58.6,29v23.6c0,0,66.8,61.1,97.5,61C183.1,377.5,218.2,316.7,248.6,316.6z
			 M741.6,330.5c9.6,0,17.3,6.4,17.3,14.2c0,7.9-7.8,14.2-17.3,14.2c-9.6,0-17.3-6.4-17.3-14.2C724.2,336.9,732,330.5,741.6,330.5z
			 M540,330.5c9.6,0,17.3,6.4,17.3,14.2c0,7.9-7.8,14.2-17.3,14.2c-9.6,0-17.3-6.4-17.3-14.2C522.7,336.9,530.4,330.5,540,330.5z
			 M346.6,330.5c9.6,0,17.3,6.4,17.3,14.2c0,7.9-7.8,14.2-17.3,14.2c-9.6,0-17.3-6.4-17.3-14.2C329.2,336.9,337,330.5,346.6,330.5z
			 M130.4,344.8c0-7.9,7.8-14.2,17.3-14.2c9.6,0,17.3,6.4,17.3,14.2c0,7.9-7.8,14.2-17.3,14.2C138.1,359,130.4,352.6,130.4,344.8z"
			/>
		<path opacity="1" fill="#e8db80" d="M834.9,434.4V406v-75c0,0-65.2,60.7-95.4,61c-31.3,0.3-69.3-61.3-100.6-61
			c-30.4,0.3-65.7,60.9-96.1,61c-30.6,0.1-66.6-60.8-97.3-61c-31.1-0.2-68.5,61.1-99.6,61c-30.6-0.1-66.7-61.1-97.3-61
			c-30.4,0.1-65.5,60.9-95.9,61c-30.7,0.1-97.5-61-97.5-61v122.1h779.7V434.4z M251.9,434.4c-9.6,0-17.3-6.4-17.3-14.2
			c0-7.9,7.8-14.2,17.3-14.2c9.6,0,17.3,6.4,17.3,14.2C269.2,428,261.5,434.4,251.9,434.4z M437.2,434.4c-9.6,0-17.3-6.4-17.3-14.2
			c0-7.9,7.8-14.2,17.3-14.2c9.6,0,17.3,6.4,17.3,14.2C454.6,428,446.8,434.4,437.2,434.4z M640.1,434.4c-9.6,0-17.3-6.4-17.3-14.2
			c0-7.9,7.8-14.2,17.3-14.2c9.6,0,17.3,6.4,17.3,14.2C657.5,428,649.7,434.4,640.1,434.4z"/>
		<g opacity="1">
			<polygon fill="#e8db80" points="342.3,87.4 342.3,68.9 328.8,82.4 328.8,87.4 			"/>
			<polygon fill="#e8db80" points="342.3,46 328.8,59.5 328.8,67.2 342.3,53.6 			"/>
			<path fill="#e8db80" d="M337.1,38.7H334c-2.9,0-5.2,3-5.2,6.7v10.1l13-13C340.9,40.2,339.1,38.7,337.1,38.7z"/>
			<polygon fill="#e8db80" points="342.3,57.7 328.8,71.2 328.8,78.4 342.3,64.9 			"/>
			<path fill="#e8db80" d="M333.7,0c0,0,1.8,9.9-4.6,16c-6.3,6.1-1.7,11.7,5.5,15.4C343.7,23.2,347.7,18.5,333.7,0z"/>
		</g>
		<g opacity="1">
			<polygon fill="#e8db80" points="312,87.4 312,68.9 298.5,82.4 298.5,87.4 			"/>
			<polygon fill="#e8db80" points="312,46 298.5,59.5 298.5,67.2 312,53.6 			"/>
			<path fill="#e8db80" d="M306.8,38.7h-3.1c-2.9,0-5.2,3-5.2,6.7v10.1l13-13C310.6,40.2,308.9,38.7,306.8,38.7z"/>
			<polygon fill="#e8db80" points="312,57.7 298.5,71.2 298.5,78.4 312,64.9 			"/>
			<path fill="#e8db80" d="M303.5,0c0,0,1.8,9.9-4.6,16c-6.3,6.1-1.7,11.7,5.5,15.4C313.4,23.2,317.4,18.5,303.5,0z"/>
		</g>
		<g opacity="1">
			<polygon fill="#e8db80" points="281.7,87.4 281.7,68.9 268.2,82.4 268.2,87.4 			"/>
			<polygon fill="#e8db80" points="281.7,46 268.2,59.5 268.2,67.2 281.7,53.6 			"/>
			<path fill="#e8db80" d="M276.5,38.7h-3.1c-2.9,0-5.2,3-5.2,6.7v10.1l13-13C280.3,40.2,278.6,38.7,276.5,38.7z"/>
			<polygon fill="#e8db80" points="281.7,57.7 268.2,71.2 268.2,78.4 281.7,64.9 			"/>
			<path fill="#e8db80" d="M273.2,0c0,0,1.8,9.9-4.6,16c-6.3,6.1-1.7,11.7,5.5,15.4C283.2,23.2,287.1,18.5,273.2,0z"/>
		</g>
		<g opacity="1">
			<polygon fill="#e8db80" points="251.4,87.4 251.4,68.9 237.9,82.4 237.9,87.4 			"/>
			<polygon fill="#e8db80" points="251.4,46 237.9,59.5 237.9,67.2 251.4,53.6 			"/>
			<path fill="#e8db80" d="M246.2,38.7h-3.1c-2.9,0-5.2,3-5.2,6.7v10.1l13-13C250.1,40.2,248.3,38.7,246.2,38.7z"/>
			<polygon fill="#e8db80" points="251.4,57.7 237.9,71.2 237.9,78.4 251.4,64.9 			"/>
			<path fill="#e8db80" d="M242.9,0c0,0,1.8,9.9-4.6,16c-6.3,6.1-1.7,11.7,5.5,15.4C252.9,23.2,256.8,18.5,242.9,0z"/>
		</g>
		<g opacity="1">
			<polygon fill="#e8db80" points="221.2,87.4 221.2,68.9 207.6,82.4 207.6,87.4 			"/>
			<polygon fill="#e8db80" points="221.2,46 207.6,59.5 207.6,67.2 221.2,53.6 			"/>
			<path fill="#e8db80" d="M215.9,38.7h-3.1c-2.9,0-5.2,3-5.2,6.7v10.1l13-13C219.8,40.2,218,38.7,215.9,38.7z"/>
			<polygon fill="#e8db80" points="221.2,57.7 207.6,71.2 207.6,78.4 221.2,64.9 			"/>
			<path fill="#e8db80" d="M212.6,0c0,0,1.8,9.9-4.6,16c-6.3,6.1-1.7,11.7,5.5,15.4C222.6,23.2,226.6,18.5,212.6,0z"/>
		</g>
		<g opacity="1">
			<polygon fill="#e8db80" points="370.8,87.4 370.8,68.9 357.3,82.4 357.3,87.4 			"/>
			<polygon fill="#e8db80" points="370.8,46 357.3,59.5 357.3,67.2 370.8,53.6 			"/>
			<path fill="#e8db80" d="M365.6,38.7h-3.1c-2.9,0-5.2,3-5.2,6.7v10.1l13-13C369.4,40.2,367.6,38.7,365.6,38.7z"/>
			<polygon fill="#e8db80" points="370.8,57.7 357.3,71.2 357.3,78.4 370.8,64.9 			"/>
			<path fill="#e8db80" d="M362.2,0c0,0,1.8,9.9-4.6,16c-6.3,6.1-1.7,11.7,5.5,15.4C372.2,23.2,376.2,18.5,362.2,0z"/>
		</g>
		<g opacity="1">
			<polygon fill="#e8db80" points="399.3,87.4 399.3,68.9 385.8,82.4 385.8,87.4 			"/>
			<polygon fill="#e8db80" points="399.3,46 385.8,59.5 385.8,67.2 399.3,53.6 			"/>
			<path fill="#e8db80" d="M394.1,38.7H391c-2.9,0-5.2,3-5.2,6.7v10.1l13-13C397.9,40.2,396.1,38.7,394.1,38.7z"/>
			<polygon fill="#e8db80" points="399.3,57.7 385.8,71.2 385.8,78.4 399.3,64.9 			"/>
			<path fill="#e8db80" d="M390.7,0c0,0,1.8,9.9-4.6,16c-6.3,6.1-1.7,11.7,5.5,15.4C400.7,23.2,404.7,18.5,390.7,0z"/>
		</g>
		<g opacity="1">
			<polygon fill="#e8db80" points="427.8,87.4 427.8,68.9 414.3,82.4 414.3,87.4 			"/>
			<polygon fill="#e8db80" points="427.8,46 414.3,59.5 414.3,67.2 427.8,53.6 			"/>
			<path fill="#e8db80" d="M422.6,38.7h-3.1c-2.9,0-5.2,3-5.2,6.7v10.1l13-13C426.4,40.2,424.7,38.7,422.6,38.7z"/>
			<polygon fill="#e8db80" points="427.8,57.7 414.3,71.2 414.3,78.4 427.8,64.9 			"/>
			<path fill="#e8db80" d="M419.2,0c0,0,1.8,9.9-4.6,16c-6.3,6.1-1.7,11.7,5.5,15.4C429.2,23.2,433.2,18.5,419.2,0z"/>
		</g>
		<g opacity="1">
			<polygon fill="#e8db80" points="456.3,87.4 456.3,68.9 442.8,82.4 442.8,87.4 			"/>
			<polygon fill="#e8db80" points="456.3,46 442.8,59.5 442.8,67.2 456.3,53.6 			"/>
			<path fill="#e8db80" d="M451.1,38.7H448c-2.9,0-5.2,3-5.2,6.7v10.1l13-13C454.9,40.2,453.2,38.7,451.1,38.7z"/>
			<polygon fill="#e8db80" points="456.3,57.7 442.8,71.2 442.8,78.4 456.3,64.9 			"/>
			<path fill="#e8db80" d="M447.7,0c0,0,1.8,9.9-4.6,16c-6.3,6.1-1.7,11.7,5.5,15.4C457.7,23.2,461.7,18.5,447.7,0z"/>
		</g>
		<g opacity="1">
			<polygon fill="#e8db80" points="484.8,87.4 484.8,68.9 471.3,82.4 471.3,87.4 			"/>
			<polygon fill="#e8db80" points="484.8,46 471.3,59.5 471.3,67.2 484.8,53.6 			"/>
			<path fill="#e8db80" d="M479.6,38.7h-3.1c-2.9,0-5.2,3-5.2,6.7v10.1l13-13C483.4,40.2,481.7,38.7,479.6,38.7z"/>
			<polygon fill="#e8db80" points="484.8,57.7 471.3,71.2 471.3,78.4 484.8,64.9 			"/>
			<path fill="#e8db80" d="M476.2,0c0,0,1.8,9.9-4.6,16c-6.3,6.1-1.7,11.7,5.5,15.4C486.2,23.2,490.2,18.5,476.2,0z"/>
		</g>
		<g opacity="1">
			<polygon fill="#e8db80" points="513.3,87.4 513.3,68.9 499.8,82.4 499.8,87.4 			"/>
			<polygon fill="#e8db80" points="513.3,46 499.8,59.5 499.8,67.2 513.3,53.6 			"/>
			<path fill="#e8db80" d="M508.1,38.7H505c-2.9,0-5.2,3-5.2,6.7v10.1l13-13C511.9,40.2,510.2,38.7,508.1,38.7z"/>
			<polygon fill="#e8db80" points="513.3,57.7 499.8,71.2 499.8,78.4 513.3,64.9 			"/>
			<path fill="#e8db80" d="M504.8,0c0,0,1.8,9.9-4.6,16c-6.3,6.1-1.7,11.7,5.5,15.4C514.7,23.2,518.7,18.5,504.8,0z"/>
		</g>
		<g opacity="1">
			<polygon fill="#e8db80" points="541.8,87.4 541.8,68.9 528.3,82.4 528.3,87.4 			"/>
			<polygon fill="#e8db80" points="541.8,46 528.3,59.5 528.3,67.2 541.8,53.6 			"/>
			<path fill="#e8db80" d="M536.6,38.7h-3.1c-2.9,0-5.2,3-5.2,6.7v10.1l13-13C540.4,40.2,538.7,38.7,536.6,38.7z"/>
			<polygon fill="#e8db80" points="541.8,57.7 528.3,71.2 528.3,78.4 541.8,64.9 			"/>
			<path fill="#e8db80" d="M533.3,0c0,0,1.8,9.9-4.6,16c-6.3,6.1-1.7,11.7,5.5,15.4C543.2,23.2,547.2,18.5,533.3,0z"/>
		</g>
		<g opacity="1">
			<polygon fill="#e8db80" points="570.3,87.4 570.3,68.9 556.8,82.4 556.8,87.4 			"/>
			<polygon fill="#e8db80" points="570.3,46 556.8,59.5 556.8,67.2 570.3,53.6 			"/>
			<path fill="#e8db80" d="M565.1,38.7H562c-2.9,0-5.2,3-5.2,6.7v10.1l13-13C568.9,40.2,567.2,38.7,565.1,38.7z"/>
			<polygon fill="#e8db80" points="570.3,57.7 556.8,71.2 556.8,78.4 570.3,64.9 			"/>
			<path fill="#e8db80" d="M561.8,0c0,0,1.8,9.9-4.6,16c-6.3,6.1-1.7,11.7,5.5,15.4C571.8,23.2,575.7,18.5,561.8,0z"/>
		</g>
		<g opacity="1">
			<polygon fill="#e8db80" points="598.8,87.4 598.8,68.9 585.3,82.4 585.3,87.4 			"/>
			<polygon fill="#e8db80" points="598.8,46 585.3,59.5 585.3,67.2 598.8,53.6 			"/>
			<path fill="#e8db80" d="M593.6,38.7h-3.1c-2.9,0-5.2,3-5.2,6.7v10.1l13-13C597.4,40.2,595.7,38.7,593.6,38.7z"/>
			<polygon fill="#e8db80" points="598.8,57.7 585.3,71.2 585.3,78.4 598.8,64.9 			"/>
			<path fill="#e8db80" d="M590.3,0c0,0,1.8,9.9-4.6,16c-6.3,6.1-1.7,11.7,5.5,15.4C600.3,23.2,604.2,18.5,590.3,0z"/>
		</g>
		<g opacity="1">
			<polygon fill="#e8db80" points="628.7,87.4 628.7,68.9 615.2,82.4 615.2,87.4 			"/>
			<polygon fill="#e8db80" points="628.7,46 615.2,59.5 615.2,67.2 628.7,53.6 			"/>
			<path fill="#e8db80" d="M623.5,38.7h-3.1c-2.9,0-5.2,3-5.2,6.7v10.1l13-13C627.3,40.2,625.6,38.7,623.5,38.7z"/>
			<polygon fill="#e8db80" points="628.7,57.7 615.2,71.2 615.2,78.4 628.7,64.9 			"/>
			<path fill="#e8db80" d="M620.1,0c0,0,1.8,9.9-4.6,16c-6.3,6.1-1.7,11.7,5.5,15.4C630.1,23.2,634.1,18.5,620.1,0z"/>
		</g>
		<g opacity="1">
			<polygon fill="#e8db80" points="656.9,87.4 656.9,68.9 643.3,82.4 643.3,87.4 			"/>
			<polygon fill="#e8db80" points="656.9,46 643.3,59.5 643.3,67.2 656.9,53.6 			"/>
			<path fill="#e8db80" d="M651.6,38.7h-3.1c-2.9,0-5.2,3-5.2,6.7v10.1l13-13C655.5,40.2,653.7,38.7,651.6,38.7z"/>
			<polygon fill="#e8db80" points="656.9,57.7 643.3,71.2 643.3,78.4 656.9,64.9 			"/>
			<path fill="#e8db80" d="M648.3,0c0,0,1.8,9.9-4.6,16c-6.3,6.1-1.7,11.7,5.5,15.4C658.3,23.2,662.3,18.5,648.3,0z"/>
		</g>
		<g opacity="1">
			<polygon fill="#e8db80" points="685.4,87.4 685.4,68.9 671.8,82.4 671.8,87.4 			"/>
			<path fill="#e8db80" d="M680.1,61.9h-3.1c-2.9,0-5.2,3-5.2,6.7v10.1l13-13C684,63.5,682.2,61.9,680.1,61.9z"/>
			<path fill="#e8db80" d="M676.8,23.2c0,0,1.8,9.9-4.6,16c-6.3,6.1-1.7,11.7,5.5,15.4C686.8,46.5,690.8,41.7,676.8,23.2z"/>
		</g>
	</g>
</g>
</svg>
