<?xml version="1.0" encoding="utf-8"?>
<!-- Generator: Adobe Illustrator 18.1.0, SVG Export Plug-In . SVG Version: 6.00 Build 0)  -->
<!DOCTYPE svg PUBLIC "-//W3C//DTD SVG 1.1//EN" "http://www.w3.org/Graphics/SVG/1.1/DTD/svg11.dtd">
<svg version="1.1" id="Layer_1" xmlns="http://www.w3.org/2000/svg" xmlns:xlink="http://www.w3.org/1999/xlink" x="0px" y="0px"
	 viewBox="0 0 881.6 493.2" enable-background="new 0 0 881.6 493.2" xml:space="preserve">
<g>
	<g>
		<path opacity="1" fill="#f5803b" d="M863.4,453.4h-16H34.2h-16c-14.9,0-22.1,8.9-16,19.9c6.1,11,22.2,19.9,36.1,19.9h805.1
			c13.9,0,30-8.9,36.1-19.9C885.6,462.3,878.4,453.4,863.4,453.4z"/>
		<path opacity="1" fill="#f5803b" d="M302.7,163.6c22.2-0.1,48.3,44.1,70.5,44.2c22.5,0.1,49.7-44.3,72.2-44.2
			c22.2,0.1,48.3,44.3,70.5,44.2c22-0.1,47.6-44,69.7-44.2c22.7-0.2,50.2,44.4,72.9,44.2c22-0.2,69.2-44.2,69.2-44.2v-35.7
			c0-36.4-5-39.6-42.9-39.6H204.9c-38,0-42.5,3.2-42.5,39.6v35.7c0,0,48.4,44.3,70.7,44.2C255.2,207.7,280.6,163.7,302.7,163.6z
			 M660,173.7c6.9,0,12.6,4.6,12.6,10.3c0,5.7-5.6,10.3-12.6,10.3c-6.9,0-12.6-4.6-12.6-10.3C647.4,178.3,653,173.7,660,173.7z
			 M513.9,173.7c6.9,0,12.6,4.6,12.6,10.3c0,5.7-5.6,10.3-12.6,10.3c-6.9,0-12.6-4.6-12.6-10.3C501.3,178.3,506.9,173.7,513.9,173.7
			z M373.7,173.7c6.9,0,12.6,4.6,12.6,10.3c0,5.7-5.6,10.3-12.6,10.3c-6.9,0-12.6-4.6-12.6-10.3
			C361.1,178.3,366.7,173.7,373.7,173.7z M217,184c0-5.7,5.6-10.3,12.6-10.3c6.9,0,12.6,4.6,12.6,10.3c0,5.7-5.6,10.3-12.6,10.3
			C222.6,194.3,217,189.7,217,184z"/>
		<path opacity="1" fill="#f5803b" d="M727.6,227.8v-52.3c0,0-47.2,44-69.2,44.2c-22.7,0.2-50.3-44.4-73-44.2
			c-22,0.2-47.6,44.2-69.6,44.2c-22.2,0.1-48.3-44.1-70.5-44.2c-22.5-0.1-49.7,44.3-72.2,44.2c-22.2-0.1-48.3-44.3-70.5-44.2
			c-22,0.1-47.5,44.1-69.5,44.2c-22.3,0.1-70.7-44.2-70.7-44.2V264h565.2V227.8z"/>
		<path opacity="1" fill="#f5803b" d="M248.6,316.6c30.6-0.1,66.7,60.9,97.3,61c31.1,0.1,68.5-61.2,99.6-61
			c30.6,0.2,66.7,61.1,97.3,61c30.4-0.1,65.7-60.7,96.1-61c31.3-0.3,69.2,61.3,100.5,61c30.3-0.3,95.4-61,95.4-61V293
			c0-23.2-6.8-29-59.3-29H113.8c-52.4,0-58.6,0.8-58.6,29v23.6c0,0,66.8,61.1,97.5,61C183.1,377.5,218.2,316.7,248.6,316.6z
			 M741.6,330.5c9.6,0,17.3,6.4,17.3,14.2c0,7.9-7.8,14.2-17.3,14.2c-9.6,0-17.3-6.4-17.3-14.2C724.2,336.9,732,330.5,741.6,330.5z
			 M540,330.5c9.6,0,17.3,6.4,17.3,14.2c0,7.9-7.8,14.2-17.3,14.2c-9.6,0-17.3-6.4-17.3-14.2C522.7,336.9,530.4,330.5,540,330.5z
			 M346.6,330.5c9.6,0,17.3,6.4,17.3,14.2c0,7.9-7.8,14.2-17.3,14.2c-9.6,0-17.3-6.4-17.3-14.2C329.2,336.9,337,330.5,346.6,330.5z
			 M130.4,344.8c0-7.9,7.8-14.2,17.3-14.2c9.6,0,17.3,6.4,17.3,14.2c0,7.9-7.8,14.2-17.3,14.2C138.1,359,130.4,352.6,130.4,344.8z"
			/>
		<path opacity="1" fill="#f5803b" d="M834.9,434.4V406v-75c0,0-65.2,60.7-95.4,61c-31.3,0.3-69.3-61.3-100.6-61
			c-30.4,0.3-65.7,60.9-96.1,61c-30.6,0.1-66.6-60.8-97.3-61c-31.1-0.2-68.5,61.1-99.6,61c-30.6-0.1-66.7-61.1-97.3-61
			c-30.4,0.1-65.5,60.9-95.9,61c-30.7,0.1-97.5-61-97.5-61v122.1h779.7V434.4z M251.9,434.4c-9.6,0-17.3-6.4-17.3-14.2
			c0-7.9,7.8-14.2,17.3-14.2c9.6,0,17.3,6.4,17.3,14.2C269.2,428,261.5,434.4,251.9,434.4z M437.2,434.4c-9.6,0-17.3-6.4-17.3-14.2
			c0-7.9,7.8-14.2,17.3-14.2c9.6,0,17.3,6.4,17.3,14.2C454.6,428,446.8,434.4,437.2,434.4z M640.1,434.4c-9.6,0-17.3-6.4-17.3-14.2
			c0-7.9,7.8-14.2,17.3-14.2c9.6,0,17.3,6.4,17.3,14.2C657.5,428,649.7,434.4,640.1,434.4z"/>
	</g>
</g>
</svg>
