<?xml version="1.0" encoding="utf-8"?>
<!-- Generator: Adobe Illustrator 18.1.0, SVG Export Plug-In . SVG Version: 6.00 Build 0)  -->
<!DOCTYPE svg PUBLIC "-//W3C//DTD SVG 1.1//EN" "http://www.w3.org/Graphics/SVG/1.1/DTD/svg11.dtd">
<svg version="1.1" id="Layer_1" xmlns="http://www.w3.org/2000/svg" xmlns:xlink="http://www.w3.org/1999/xlink" x="0px" y="0px"
	 viewBox="0 0 881.6 493.2" enable-background="new 0 0 881.6 493.2" xml:space="preserve">
<g>
	<g>
		<g opacity="1">
			<polygon fill="#f5803b" points="221.2,87.4 221.2,68.9 207.6,82.4 207.6,87.4 			"/>
			<polygon fill="#f5803b" points="221.2,46 207.6,59.5 207.6,67.2 221.2,53.6 			"/>
			<path fill="#f5803b" d="M215.9,38.7h-3.1c-2.9,0-5.2,3-5.2,6.7v10.1l13-13C219.8,40.2,218,38.7,215.9,38.7z"/>
			<polygon fill="#f5803b" points="221.2,57.7 207.6,71.2 207.6,78.4 221.2,64.9 			"/>
			<path fill="#f5803b" d="M212.6,0c0,0,1.8,9.9-4.6,16c-6.3,6.1-1.7,11.7,5.5,15.4C222.6,23.2,226.6,18.5,212.6,0z"/>
		</g>
	</g>
</g>
</svg>
