<?xml version="1.0" encoding="utf-8"?>
<!-- Generator: Adobe Illustrator 18.1.0, SVG Export Plug-In . SVG Version: 6.00 Build 0)  -->
<!DOCTYPE svg PUBLIC "-//W3C//DTD SVG 1.1//EN" "http://www.w3.org/Graphics/SVG/1.1/DTD/svg11.dtd">
<svg version="1.1" id="Layer_1" xmlns="http://www.w3.org/2000/svg" xmlns:xlink="http://www.w3.org/1999/xlink" x="0px" y="0px"
	 viewBox="0 0 1596.2 302.8" enable-background="new 0 0 1596.2 302.8" xml:space="preserve">
<g opacity="0.3">
	<ellipse fill="#FFFFFF" cx="51.7" cy="22.1" rx="24.6" ry="22.1"/>
	<path fill="#FFFFFF" d="M51.7,176.1c-3.6-1.7-5.5,2.1-5.5,2.1L42.9,291c-1.4,13.9-12.1,11.7-12.1,11.7c-10.5-0.3-10.2-10-10.2-10
		l2.6-195.8c0-0.7-0.4-2.1-0.8-2.5c-1.6-1.5-2.4-0.5-2.6,0.1c-5.5,18.4-2.7,76.7-2.7,76.7c-0.2,11.2-10.6,9-10.6,9
		c-7.1-1.9-6.6-10-6.6-10V70.8c0-17,22.1-17,22.1-17h29.6h29.6c0,0,22.1,0,22.1,17v99.4c0,0,0.6,8.1-6.6,10c0,0-10.4,2.2-10.6-9
		c0,0,2.8-58.3-2.7-76.7c-0.2-0.6-1-1.6-2.6-0.1c-0.4,0.4-0.8,1.8-0.8,2.5l2.6,195.8c0,0,0.3,9.7-10.1,10c0,0-10.7,2.2-12.1-11.7
		l-3.3-112.7C57.2,178.3,55.3,174.5,51.7,176.1z"/>
	<ellipse fill="#FFFFFF" cx="201" cy="22.1" rx="24.6" ry="22.1"/>
	<path fill="#FFFFFF" d="M201,176.1c-3.6-1.7-5.5,2.1-5.5,2.1L192.2,291c-1.4,13.9-12.1,11.7-12.1,11.7c-10.5-0.3-10.2-10-10.2-10
		l2.6-195.8c0-0.7-0.4-2.1-0.8-2.5c-1.6-1.5-2.4-0.5-2.6,0.1c-5.5,18.4-2.7,76.7-2.7,76.7c-0.2,11.2-10.6,9-10.6,9
		c-7.1-1.9-6.6-10-6.6-10V70.8c0-17,22.1-17,22.1-17H201h29.6c0,0,22.1,0,22.1,17v99.4c0,0,0.6,8.1-6.6,10c0,0-10.4,2.2-10.6-9
		c0,0,2.8-58.3-2.7-76.7c-0.2-0.6-1-1.6-2.6-0.1c-0.4,0.4-0.8,1.8-0.8,2.5l2.6,195.8c0,0,0.3,9.7-10.1,10c0,0-10.7,2.2-12.1-11.7
		l-3.3-112.7C206.5,178.3,204.6,174.5,201,176.1z"/>
	<ellipse fill="#FFFFFF" cx="350.3" cy="22.1" rx="24.6" ry="22.1"/>
	<path fill="#FFFFFF" d="M350.3,176.1c-3.6-1.7-5.5,2.1-5.5,2.1L341.5,291c-1.4,13.9-12.1,11.7-12.1,11.7c-10.5-0.3-10.2-10-10.2-10
		l2.6-195.8c0-0.7-0.4-2.1-0.8-2.5c-1.6-1.5-2.4-0.5-2.6,0.1c-5.5,18.4-2.7,76.7-2.7,76.7c-0.2,11.2-10.6,9-10.6,9
		c-7.1-1.9-6.6-10-6.6-10V70.8c0-17,22.1-17,22.1-17h29.6h29.6c0,0,22.1,0,22.1,17v99.4c0,0,0.6,8.1-6.6,10c0,0-10.4,2.2-10.6-9
		c0,0,2.8-58.3-2.7-76.7c-0.2-0.6-1-1.6-2.6-0.1c-0.4,0.4-0.8,1.8-0.8,2.5l2.6,195.8c0,0,0.3,9.7-10.1,10c0,0-10.7,2.2-12.1-11.7
		l-3.3-112.7C355.8,178.3,353.9,174.5,350.3,176.1z"/>
	<ellipse fill="#FFFFFF" cx="499.5" cy="22.1" rx="24.6" ry="22.1"/>
	<path fill="#FFFFFF" d="M499.5,176.1c-3.6-1.7-5.5,2.1-5.5,2.1L490.7,291c-1.4,13.9-12.1,11.7-12.1,11.7c-10.5-0.3-10.2-10-10.2-10
		l2.6-195.8c0-0.7-0.4-2.1-0.8-2.5c-1.6-1.5-2.4-0.5-2.6,0.1c-5.5,18.4-2.7,76.7-2.7,76.7c-0.2,11.2-10.6,9-10.6,9
		c-7.1-1.9-6.6-10-6.6-10V70.8c0-17,22.1-17,22.1-17h29.6h29.6c0,0,22.1,0,22.1,17v99.4c0,0,0.6,8.1-6.6,10c0,0-10.4,2.2-10.6-9
		c0,0,2.8-58.3-2.7-76.7c-0.2-0.6-1-1.6-2.6-0.1c-0.4,0.4-0.8,1.8-0.8,2.5l2.6,195.8c0,0,0.3,9.7-10.1,10c0,0-10.7,2.2-12.1-11.7
		l-3.3-112.7C505.1,178.3,503.2,174.5,499.5,176.1z"/>
	<ellipse fill="#FFFFFF" cx="648.8" cy="22.1" rx="24.6" ry="22.1"/>
	<path fill="#FFFFFF" d="M648.8,176.1c-3.6-1.7-5.5,2.1-5.5,2.1L640,291c-1.4,13.9-12.1,11.7-12.1,11.7c-10.5-0.3-10.2-10-10.2-10
		l2.6-195.8c0-0.7-0.4-2.1-0.8-2.5c-1.6-1.5-2.4-0.5-2.6,0.1c-5.5,18.4-2.7,76.7-2.7,76.7c-0.2,11.2-10.6,9-10.6,9
		c-7.1-1.9-6.6-10-6.6-10V70.8c0-17,22.1-17,22.1-17h29.6h29.6c0,0,22.1,0,22.1,17v99.4c0,0,0.6,8.1-6.6,10c0,0-10.4,2.2-10.6-9
		c0,0,2.8-58.3-2.7-76.7c-0.2-0.6-1-1.6-2.6-0.1c-0.4,0.4-0.8,1.8-0.8,2.5l2.6,195.8c0,0,0.3,9.7-10.1,10c0,0-10.7,2.2-12.1-11.7
		l-3.3-112.7C654.3,178.3,652.5,174.5,648.8,176.1z"/>
	<ellipse fill="#FFFFFF" cx="798.1" cy="22.1" rx="24.6" ry="22.1"/>
	<path fill="#FFFFFF" d="M798.1,176.1c-3.6-1.7-5.5,2.1-5.5,2.1L789.3,291c-1.4,13.9-12.1,11.7-12.1,11.7c-10.5-0.3-10.2-10-10.2-10
		l2.6-195.8c0-0.7-0.4-2.1-0.8-2.5c-1.6-1.5-2.4-0.5-2.6,0.1c-5.5,18.4-2.7,76.7-2.7,76.7c-0.2,11.2-10.6,9-10.6,9
		c-7.1-1.9-6.6-10-6.6-10V70.8c0-17,22.1-17,22.1-17h29.6h29.6c0,0,22.1,0,22.1,17v99.4c0,0,0.6,8.1-6.6,10c0,0-10.4,2.2-10.6-9
		c0,0,2.8-58.3-2.7-76.7c-0.2-0.6-1-1.6-2.6-0.1c-0.4,0.4-0.8,1.8-0.8,2.5l2.6,195.8c0,0,0.3,9.7-10.1,10c0,0-10.7,2.2-12.1-11.7
		l-3.3-112.7C803.6,178.3,801.7,174.5,798.1,176.1z"/>
	<ellipse fill="#FFFFFF" cx="947.4" cy="22.1" rx="24.6" ry="22.1"/>
	<path fill="#FFFFFF" d="M947.4,176.1c-3.6-1.7-5.5,2.1-5.5,2.1L938.6,291c-1.4,13.9-12.1,11.7-12.1,11.7c-10.5-0.3-10.2-10-10.2-10
		l2.6-195.8c0-0.7-0.4-2.1-0.8-2.5c-1.6-1.5-2.4-0.5-2.6,0.1c-5.5,18.4-2.7,76.7-2.7,76.7c-0.2,11.2-10.6,9-10.6,9
		c-7.1-1.9-6.6-10-6.6-10V70.8c0-17,22.1-17,22.1-17h29.6H977c0,0,22.1,0,22.1,17v99.4c0,0,0.6,8.1-6.6,10c0,0-10.4,2.2-10.6-9
		c0,0,2.8-58.3-2.7-76.7c-0.2-0.6-1-1.6-2.6-0.1c-0.4,0.4-0.8,1.8-0.8,2.5l2.6,195.8c0,0,0.3,9.7-10.1,10c0,0-10.7,2.2-12.1-11.7
		l-3.3-112.7C952.9,178.3,951,174.5,947.4,176.1z"/>
	<ellipse fill="#FFFFFF" cx="1096.7" cy="22.1" rx="24.6" ry="22.1"/>
	<path fill="#FFFFFF" d="M1096.7,176.1c-3.6-1.7-5.5,2.1-5.5,2.1l-3.3,112.7c-1.4,13.9-12.1,11.7-12.1,11.7
		c-10.5-0.3-10.2-10-10.2-10l2.6-195.8c0-0.7-0.4-2.1-0.8-2.5c-1.6-1.5-2.4-0.5-2.6,0.1c-5.5,18.4-2.7,76.7-2.7,76.7
		c-0.2,11.2-10.6,9-10.6,9c-7.1-1.9-6.6-10-6.6-10V70.8c0-17,22.1-17,22.1-17h29.6h29.6c0,0,22.1,0,22.1,17v99.4c0,0,0.6,8.1-6.6,10
		c0,0-10.4,2.2-10.6-9c0,0,2.8-58.3-2.7-76.7c-0.2-0.6-1-1.6-2.6-0.1c-0.4,0.4-0.8,1.8-0.8,2.5l2.6,195.8c0,0,0.3,9.7-10.1,10
		c0,0-10.7,2.2-12.1-11.7l-3.3-112.7C1102.2,178.3,1100.3,174.5,1096.7,176.1z"/>
	<ellipse fill="#FFFFFF" cx="1245.9" cy="22.1" rx="24.6" ry="22.1"/>
	<path fill="#FFFFFF" d="M1245.9,176.1c-3.6-1.7-5.5,2.1-5.5,2.1l-3.3,112.7c-1.4,13.9-12.1,11.7-12.1,11.7
		c-10.5-0.3-10.2-10-10.2-10l2.6-195.8c0-0.7-0.4-2.1-0.8-2.5c-1.6-1.5-2.4-0.5-2.6,0.1c-5.5,18.4-2.7,76.7-2.7,76.7
		c-0.2,11.2-10.6,9-10.6,9c-7.1-1.9-6.6-10-6.6-10V70.8c0-17,22.1-17,22.1-17h29.6h29.6c0,0,22.1,0,22.1,17v99.4c0,0,0.6,8.1-6.6,10
		c0,0-10.4,2.2-10.6-9c0,0,2.8-58.3-2.7-76.7c-0.2-0.6-1-1.6-2.6-0.1c-0.4,0.4-0.8,1.8-0.8,2.5l2.6,195.8c0,0,0.3,9.7-10.1,10
		c0,0-10.7,2.2-12.1-11.7l-3.3-112.7C1251.5,178.3,1249.6,174.5,1245.9,176.1z"/>
	<ellipse fill="#FFFFFF" cx="1395.2" cy="22.1" rx="24.6" ry="22.1"/>
	<path fill="#FFFFFF" d="M1395.2,176.1c-3.6-1.7-5.5,2.1-5.5,2.1l-3.3,112.7c-1.4,13.9-12.1,11.7-12.1,11.7
		c-10.5-0.3-10.2-10-10.2-10l2.6-195.8c0-0.7-0.4-2.1-0.8-2.5c-1.6-1.5-2.4-0.5-2.6,0.1c-5.5,18.4-2.7,76.7-2.7,76.7
		c-0.2,11.2-10.6,9-10.6,9c-7.1-1.9-6.6-10-6.6-10V70.8c0-17,22.1-17,22.1-17h29.6h29.6c0,0,22.1,0,22.1,17v99.4c0,0,0.6,8.1-6.6,10
		c0,0-10.4,2.2-10.6-9c0,0,2.8-58.3-2.7-76.7c-0.2-0.6-1-1.6-2.6-0.1c-0.4,0.4-0.8,1.8-0.8,2.5l2.6,195.8c0,0,0.3,9.7-10.1,10
		c0,0-10.7,2.2-12.1-11.7l-3.3-112.7C1400.7,178.3,1398.9,174.5,1395.2,176.1z"/>
	<ellipse fill="#FFFFFF" cx="1544.5" cy="22.1" rx="24.6" ry="22.1"/>
	<path fill="#FFFFFF" d="M1544.5,176.1c-3.6-1.7-5.5,2.1-5.5,2.1l-3.3,112.7c-1.4,13.9-12.1,11.7-12.1,11.7
		c-10.5-0.3-10.2-10-10.2-10l2.6-195.8c0-0.7-0.4-2.1-0.8-2.5c-1.6-1.5-2.4-0.5-2.6,0.1c-5.5,18.4-2.7,76.7-2.7,76.7
		c-0.2,11.2-10.6,9-10.6,9c-7.1-1.9-6.6-10-6.6-10V70.8c0-17,22.1-17,22.1-17h29.6h29.6c0,0,22.1,0,22.1,17v99.4c0,0,0.6,8.1-6.6,10
		c0,0-10.4,2.2-10.6-9c0,0,2.8-58.3-2.7-76.7c-0.2-0.6-1-1.6-2.6-0.1c-0.4,0.4-0.8,1.8-0.8,2.5l2.6,195.8c0,0,0.3,9.7-10.1,10
		c0,0-10.7,2.2-12.1-11.7l-3.3-112.7C1550,178.3,1548.1,174.5,1544.5,176.1z"/>
</g>
</svg>
