<?xml version="1.0" encoding="utf-8"?>
<!-- Generator: Adobe Illustrator 18.1.0, SVG Export Plug-In . SVG Version: 6.00 Build 0)  -->
<!DOCTYPE svg PUBLIC "-//W3C//DTD SVG 1.1//EN" "http://www.w3.org/Graphics/SVG/1.1/DTD/svg11.dtd">
<svg version="1.1" id="Layer_1" xmlns="http://www.w3.org/2000/svg" xmlns:xlink="http://www.w3.org/1999/xlink" x="0px" y="0px"
	 viewBox="60.6 37.3 273.6 494.1" enable-background="new 60.6 37.3 273.6 494.1" xml:space="preserve">
<g opacity="0.3">
	<g>
		<ellipse fill="#FFFFFF" cx="86.3" cy="48.3" rx="12.2" ry="11"/>
		<path fill="#FFFFFF" d="M86.3,124.7c-1.8-0.8-2.7,1-2.7,1l-1.6,56c-0.7,6.9-6,5.8-6,5.8c-5.2-0.1-5.1-5-5.1-5l1.3-97.2
			c0-0.3-0.2-1-0.4-1.2c-0.8-0.7-1.2-0.2-1.3,0c-2.7,9.1-1.3,38.1-1.3,38.1c-0.1,5.6-5.3,4.5-5.3,4.5c-3.5-0.9-3.3-5-3.3-5V72.4
			c0-8.4,11-8.4,11-8.4h14.7H101c0,0,11,0,11,8.4v49.3c0,0,0.3,4-3.3,5c0,0-5.2,1.1-5.3-4.5c0,0,1.4-28.9-1.3-38.1
			c-0.1-0.3-0.5-0.8-1.3,0c-0.2,0.2-0.4,0.9-0.4,1.2l1.3,97.2c0,0,0.1,4.8-5,5c0,0-5.3,1.1-6-5.8L89,125.8
			C89.1,125.8,88.1,123.9,86.3,124.7z"/>
		<ellipse fill="#FFFFFF" cx="160.4" cy="48.3" rx="12.2" ry="11"/>
		<path fill="#FFFFFF" d="M160.4,124.7c-1.8-0.8-2.7,1-2.7,1l-1.6,56c-0.7,6.9-6,5.8-6,5.8c-5.2-0.1-5.1-5-5.1-5l1.3-97.2
			c0-0.3-0.2-1-0.4-1.2c-0.8-0.7-1.2-0.2-1.3,0c-2.7,9.1-1.3,38.1-1.3,38.1c-0.1,5.6-5.3,4.5-5.3,4.5c-3.5-0.9-3.3-5-3.3-5V72.4
			c0-8.4,11-8.4,11-8.4h14.7h14.7c0,0,11,0,11,8.4v49.3c0,0,0.3,4-3.3,5c0,0-5.2,1.1-5.3-4.5c0,0,1.4-28.9-1.3-38.1
			c-0.1-0.3-0.5-0.8-1.3,0c-0.2,0.2-0.4,0.9-0.4,1.2l1.3,97.2c0,0,0.1,4.8-5,5c0,0-5.3,1.1-6-5.8l-1.6-55.9
			C163.1,125.8,162.2,123.9,160.4,124.7z"/>
		<ellipse fill="#FFFFFF" cx="234.5" cy="48.3" rx="12.2" ry="11"/>
		<path fill="#FFFFFF" d="M234.5,124.7c-1.8-0.8-2.7,1-2.7,1l-1.6,56c-0.7,6.9-6,5.8-6,5.8c-5.2-0.1-5.1-5-5.1-5l1.3-97.2
			c0-0.3-0.2-1-0.4-1.2c-0.8-0.7-1.2-0.2-1.3,0c-2.7,9.1-1.3,38.1-1.3,38.1c-0.1,5.6-5.3,4.5-5.3,4.5c-3.5-0.9-3.3-5-3.3-5V72.4
			c0-8.4,11-8.4,11-8.4h14.7h14.7c0,0,11,0,11,8.4v49.3c0,0,0.3,4-3.3,5c0,0-5.2,1.1-5.3-4.5c0,0,1.4-28.9-1.3-38.1
			c-0.1-0.3-0.5-0.8-1.3,0c-0.2,0.2-0.4,0.9-0.4,1.2l1.3,97.2c0,0,0.1,4.8-5,5c0,0-5.3,1.1-6-5.8l-1.6-55.9
			C237.2,125.8,236.3,123.9,234.5,124.7z"/>
		<ellipse fill="#FFFFFF" cx="308.5" cy="48.3" rx="12.2" ry="11"/>
		<path fill="#FFFFFF" d="M308.5,124.7c-1.8-0.8-2.7,1-2.7,1l-1.6,56c-0.7,6.9-6,5.8-6,5.8c-5.2-0.1-5.1-5-5.1-5l1.3-97.2
			c0-0.3-0.2-1-0.4-1.2c-0.8-0.7-1.2-0.2-1.3,0c-2.7,9.1-1.3,38.1-1.3,38.1c-0.1,5.6-5.3,4.5-5.3,4.5c-3.5-0.9-3.3-5-3.3-5V72.4
			c0-8.4,11-8.4,11-8.4h14.7h14.7c0,0,11,0,11,8.4v49.3c0,0,0.3,4-3.3,5c0,0-5.2,1.1-5.3-4.5c0,0,1.4-28.9-1.3-38.1
			c-0.1-0.3-0.5-0.8-1.3,0c-0.2,0.2-0.4,0.9-0.4,1.2l1.3,97.2c0,0,0.1,4.8-5,5c0,0-5.3,1.1-6-5.8l-1.6-55.9
			C311.3,125.8,310.4,123.9,308.5,124.7z"/>
	</g>
	<g>
		<ellipse fill="#FFFFFF" cx="86.3" cy="220.2" rx="12.2" ry="11"/>
		<path fill="#FFFFFF" d="M86.3,296.6c-1.8-0.8-2.7,1-2.7,1l-1.6,56c-0.7,6.9-6,5.8-6,5.8c-5.2-0.1-5.1-5-5.1-5l1.3-97.2
			c0-0.3-0.2-1-0.4-1.2c-0.8-0.7-1.2-0.2-1.3,0c-2.7,9.1-1.3,38.1-1.3,38.1c-0.1,5.6-5.3,4.5-5.3,4.5c-3.5-0.9-3.3-5-3.3-5v-49.3
			c0-8.4,11-8.4,11-8.4h14.7H101c0,0,11,0,11,8.4v49.3c0,0,0.3,4-3.3,5c0,0-5.2,1.1-5.3-4.5c0,0,1.4-28.9-1.3-38.1
			c-0.1-0.3-0.5-0.8-1.3,0c-0.2,0.2-0.4,0.9-0.4,1.2l1.3,97.2c0,0,0.1,4.8-5,5c0,0-5.3,1.1-6-5.8L89,297.7
			C89.1,297.7,88.2,295.8,86.3,296.6z"/>
		<ellipse fill="#FFFFFF" cx="160.4" cy="220.2" rx="12.2" ry="11"/>
		<path fill="#FFFFFF" d="M160.4,296.6c-1.8-0.8-2.7,1-2.7,1l-1.6,56c-0.7,6.9-6,5.8-6,5.8c-5.2-0.1-5.1-5-5.1-5l1.3-97.2
			c0-0.3-0.2-1-0.4-1.2c-0.8-0.7-1.2-0.2-1.3,0c-2.7,9.1-1.3,38.1-1.3,38.1c-0.1,5.6-5.3,4.5-5.3,4.5c-3.5-0.9-3.3-5-3.3-5v-49.3
			c0-8.4,11-8.4,11-8.4h14.7H175c0,0,11,0,11,8.4v49.3c0,0,0.3,4-3.3,5c0,0-5.2,1.1-5.3-4.5c0,0,1.4-28.9-1.3-38.1
			c-0.1-0.3-0.5-0.8-1.3,0c-0.2,0.2-0.4,0.9-0.4,1.2l1.3,97.2c0,0,0.1,4.8-5,5c0,0-5.3,1.1-6-5.8l-1.6-55.9
			C163.1,297.7,162.2,295.8,160.4,296.6z"/>
		<ellipse fill="#FFFFFF" cx="234.5" cy="220.2" rx="12.2" ry="11"/>
		<path fill="#FFFFFF" d="M234.5,296.6c-1.8-0.8-2.7,1-2.7,1l-1.6,56c-0.7,6.9-6,5.8-6,5.8c-5.2-0.1-5.1-5-5.1-5l1.3-97.2
			c0-0.3-0.2-1-0.4-1.2c-0.8-0.7-1.2-0.2-1.3,0c-2.7,9.1-1.3,38.1-1.3,38.1c-0.1,5.6-5.3,4.5-5.3,4.5c-3.5-0.9-3.3-5-3.3-5v-49.3
			c0-8.4,11-8.4,11-8.4h14.7h14.7c0,0,11,0,11,8.4v49.3c0,0,0.3,4-3.3,5c0,0-5.2,1.1-5.3-4.5c0,0,1.4-28.9-1.3-38.1
			c-0.1-0.3-0.5-0.8-1.3,0c-0.2,0.2-0.4,0.9-0.4,1.2l1.3,97.2c0,0,0.1,4.8-5,5c0,0-5.3,1.1-6-5.8l-1.6-55.9
			C237.2,297.7,236.3,295.8,234.5,296.6z"/>
		<ellipse fill="#FFFFFF" cx="308.6" cy="220.2" rx="12.2" ry="11"/>
		<path fill="#FFFFFF" d="M308.6,296.6c-1.8-0.8-2.7,1-2.7,1l-1.6,55.9c-0.7,6.9-6,5.8-6,5.8c-5.2-0.1-5.1-5-5.1-5l1.3-97.2
			c0-0.3-0.2-1-0.4-1.2c-0.8-0.7-1.2-0.2-1.3,0c-2.7,9.1-1.3,38.1-1.3,38.1c-0.1,5.6-5.3,4.5-5.3,4.5c-3.5-0.9-3.3-5-3.3-5v-49.3
			c0-8.4,11-8.4,11-8.4h14.7h14.7c0,0,11,0,11,8.4v49.3c0,0,0.3,4-3.3,5c0,0-5.2,1.1-5.3-4.5c0,0,1.4-28.9-1.3-38.1
			c-0.1-0.3-0.5-0.8-1.3,0c-0.2,0.2-0.4,0.9-0.4,1.2l1.3,97.2c0,0,0.1,4.8-5,5c0,0-5.3,1.1-6-5.8l-1.6-55.9
			C311.3,297.7,310.4,295.8,308.6,296.6z"/>
	</g>
	<g>
		<ellipse fill="#FFFFFF" cx="86.4" cy="392.1" rx="12.2" ry="11"/>
		<path fill="#FFFFFF" d="M86.4,468.5c-1.8-0.8-2.7,1-2.7,1L82,525.5c-0.7,6.9-6,5.8-6,5.8c-5.2-0.1-5.1-5-5.1-5l1.3-97.2
			c0-0.3-0.2-1-0.4-1.2c-0.8-0.7-1.2-0.2-1.3,0c-2.7,9.1-1.3,38.1-1.3,38.1c-0.1,5.6-5.3,4.5-5.3,4.5c-3.5-0.9-3.3-5-3.3-5v-49.3
			c0-8.4,11-8.4,11-8.4h14.7H101c0,0,11,0,11,8.4v49.3c0,0,0.3,4-3.3,5c0,0-5.2,1.1-5.3-4.5c0,0,1.4-28.9-1.3-38.1
			c-0.1-0.3-0.5-0.8-1.3,0c-0.2,0.2-0.4,0.9-0.4,1.2l1.3,97.2c0,0,0.1,4.8-5,5c0,0-5.3,1.1-6-5.8l-1.6-55.9
			C89.2,469.6,88.2,467.7,86.4,468.5z"/>
		<ellipse fill="#FFFFFF" cx="160.5" cy="392.1" rx="12.2" ry="11"/>
		<path fill="#FFFFFF" d="M160.5,468.5c-1.8-0.8-2.7,1-2.7,1l-1.6,55.9c-0.7,6.9-6,5.8-6,5.8c-5.2-0.1-5.1-5-5.1-5l1.3-97.2
			c0-0.3-0.2-1-0.4-1.2c-0.8-0.7-1.2-0.2-1.3,0c-2.7,9.1-1.3,38.1-1.3,38.1c-0.1,5.6-5.3,4.5-5.3,4.5c-3.5-0.9-3.3-5-3.3-5v-49.3
			c0-8.4,11-8.4,11-8.4h14.7h14.7c0,0,11,0,11,8.4v49.3c0,0,0.3,4-3.3,5c0,0-5.2,1.1-5.3-4.5c0,0,1.4-28.9-1.3-38.1
			c-0.1-0.3-0.5-0.8-1.3,0c-0.2,0.2-0.4,0.9-0.4,1.2l1.3,97.2c0,0,0.1,4.8-5,5c0,0-5.3,1.1-6-5.8l-1.6-55.9
			C163.2,469.6,162.3,467.7,160.5,468.5z"/>
		<ellipse fill="#FFFFFF" cx="234.5" cy="392.1" rx="12.2" ry="11"/>
		<path fill="#FFFFFF" d="M234.5,468.5c-1.8-0.8-2.7,1-2.7,1l-1.6,55.9c-0.7,6.9-6,5.8-6,5.8c-5.2-0.1-5.1-5-5.1-5l1.3-97.2
			c0-0.3-0.2-1-0.4-1.2c-0.8-0.7-1.2-0.2-1.3,0c-2.7,9.1-1.3,38.1-1.3,38.1c-0.1,5.6-5.3,4.5-5.3,4.5c-3.5-0.9-3.3-5-3.3-5v-49.3
			c0-8.4,11-8.4,11-8.4h14.7h14.7c0,0,11,0,11,8.4v49.3c0,0,0.3,4-3.3,5c0,0-5.2,1.1-5.3-4.5c0,0,1.4-28.9-1.3-38.1
			c-0.1-0.3-0.5-0.8-1.3,0c-0.2,0.2-0.4,0.9-0.4,1.2l1.3,97.2c0,0,0.1,4.8-5,5c0,0-5.3,1.1-6-5.8l-1.6-55.9
			C237.3,469.6,236.3,467.7,234.5,468.5z"/>
	</g>
</g>
</svg>
