<?xml version="1.0" encoding="utf-8"?>
<!-- Generator: Adobe Illustrator 18.1.0, SVG Export Plug-In . SVG Version: 6.00 Build 0)  -->
<!DOCTYPE svg PUBLIC "-//W3C//DTD SVG 1.1//EN" "http://www.w3.org/Graphics/SVG/1.1/DTD/svg11.dtd">
<svg version="1.1" xmlns="http://www.w3.org/2000/svg" xmlns:xlink="http://www.w3.org/1999/xlink" x="0px" y="0px"
	 viewBox="0 0 792 612" enable-background="new 0 0 792 612" xml:space="preserve">
<g id="Layer_1">
	<g opacity="0.3">
		<path fill="#FFFFFF" d="M685.1,612l-46.8-198.8c11.1-2.6,19.4-12.5,19.4-24.4c0-11-7.1-20.3-17.1-23.7V216.8h-15.9v148.3
			c-9.9,3.4-17.1,12.7-17.1,23.7c0,11.8,8.2,21.7,19.2,24.4L580,612H685.1z"/>
		<path fill="#FFFFFF" d="M192.1,195.7l4.8-2.8c29.7-17.1,61.3-30.3,94.2-39.2c34-9.2,69.2-13.9,104.7-13.9s70.7,4.7,104.7,13.9
			c32.9,8.9,64.6,22.2,94.2,39.2l4.8,2.8V261l181.6-67.6L395.9,0L10.8,193.4L192.1,261V195.7z"/>
		<path fill="#FFFFFF" d="M396,149.3c-70.7,0-137,18.9-194.1,51.9v164.9H590V201.2C533,168.2,466.7,149.3,396,149.3z"/>
	</g>
</g>
<g id="Layer_1_copy">
	<g>
		<defs>
			<rect id="SVGID_1_" x="5" y="57" width="781" height="555"/>
		</defs>
		<clipPath id="SVGID_2_">
			<use xlink:href="#SVGID_1_"  overflow="visible"/>
		</clipPath>
		<g opacity="0.3" clip-path="url(#SVGID_2_)">
			<path fill="#FFFFFF" d="M685.1,612l-46.8-198.8c11.1-2.6,19.4-12.5,19.4-24.4c0-11-7.1-20.3-17.1-23.7V216.8h-15.9v148.3
				c-9.9,3.4-17.1,12.7-17.1,23.7c0,11.8,8.2,21.7,19.2,24.4L580,612H685.1z"/>
			<path fill="#FFFFFF" d="M192.1,195.7l4.8-2.8c29.7-17.1,61.3-30.3,94.2-39.2c34-9.2,69.2-13.9,104.7-13.9s70.7,4.7,104.7,13.9
				c32.9,8.9,64.6,22.2,94.2,39.2l4.8,2.8V261l181.6-67.6L395.9,0L10.8,193.4L192.1,261V195.7z"/>
			<path fill="#FFFFFF" d="M396,149.3c-70.7,0-137,18.9-194.1,51.9v164.9H590V201.2C533,168.2,466.7,149.3,396,149.3z"/>
		</g>
	</g>
</g>
</svg>
