<?xml version="1.0" encoding="utf-8"?>
<!-- Generator: Adobe Illustrator 18.1.0, SVG Export Plug-In . SVG Version: 6.00 Build 0)  -->
<!DOCTYPE svg PUBLIC "-//W3C//DTD SVG 1.1//EN" "http://www.w3.org/Graphics/SVG/1.1/DTD/svg11.dtd">
<svg version="1.1" id="Layer_1" xmlns="http://www.w3.org/2000/svg" xmlns:xlink="http://www.w3.org/1999/xlink" x="0px" y="0px"
	 viewBox="0 0 802.9 637.8" enable-background="new 0 0 802.9 637.8" xml:space="preserve">
<g opacity="0.3">
	<path fill="#FFFFFF" d="M702.7,637.8l-48.8-207.2c11.6-2.7,20.2-13,20.2-25.4c0-11.5-7.4-21.2-17.8-24.7V225.9h-16.6v154.6
		c-10.3,3.5-17.8,13.2-17.8,24.7c0,12.3,8.5,22.6,20,25.4l-48.7,207.2H702.7z"/>
	<path fill="#FFFFFF" d="M189,204l5-2.9c30.9-17.8,63.9-31.6,98.2-40.9c35.4-9.6,72.1-14.5,109.1-14.5c37,0,73.7,4.9,109.1,14.5
		c34.3,9.3,67.3,23.1,98.2,40.9l5,2.9V272l189.3-70.5L401.3,0L0,201.6L189,272V204z"/>
	<path fill="#FFFFFF" d="M401.4,155.6c-73.7,0-142.8,19.7-202.3,54.1v171.8h404.5V209.7C544.2,175.3,475.1,155.6,401.4,155.6z"/>
</g>
</svg>
