<?xml version="1.0" encoding="utf-8"?>
<!-- Generator: Adobe Illustrator 18.1.0, SVG Export Plug-In . SVG Version: 6.00 Build 0)  -->
<!DOCTYPE svg PUBLIC "-//W3C//DTD SVG 1.1//EN" "http://www.w3.org/Graphics/SVG/1.1/DTD/svg11.dtd">
<svg version="1.1" id="Layer_1" xmlns="http://www.w3.org/2000/svg" xmlns:xlink="http://www.w3.org/1999/xlink" x="0px" y="0px"
	 viewBox="0 0 128.7 204.6" enable-background="new 0 0 128.7 204.6" xml:space="preserve">
<path opacity="0.3" fill="#FFFFFF" d="M128.7,64.9C128.7,29.2,100,0.3,64.4,0v0c0,0-0.1,0-0.1,0c0,0-0.1,0-0.1,0v0
	C28.7,0.3,0,29.2,0,64.9c0,9.2,1.9,18,5.4,25.9h0l0,0.1c1.1,2.6,2.4,5.1,3.9,7.5l55,106.1l0.1,0.2l0.1-0.2l55-106.1
	c1.5-2.4,2.7-4.9,3.9-7.5l0-0.1h0C126.8,82.9,128.7,74.1,128.7,64.9z M64.4,103.4c-22.2,0-40.3-18-40.3-40.3
	c0-22.2,18-40.3,40.3-40.3s40.3,18,40.3,40.3C104.6,85.3,86.6,103.4,64.4,103.4z"/>
</svg>
