<?xml version="1.0" encoding="utf-8"?>
<!-- Generator: Adobe Illustrator 18.1.0, SVG Export Plug-In . SVG Version: 6.00 Build 0)  -->
<!DOCTYPE svg PUBLIC "-//W3C//DTD SVG 1.1//EN" "http://www.w3.org/Graphics/SVG/1.1/DTD/svg11.dtd">
<svg version="1.1" id="Layer_1" xmlns="http://www.w3.org/2000/svg" xmlns:xlink="http://www.w3.org/1999/xlink" x="0px" y="0px"
	 viewBox="0 0 367.2 444.9" enable-background="new 0 0 367.2 444.9" xml:space="preserve">
<g>
	<path opacity="0.3" fill="#FFFFFF" d="M194,278.8c0-5.7-4.6-10.3-10.3-10.4v0c0,0,0,0,0,0c0,0,0,0,0,0v0
		c-5.7,0.1-10.3,4.7-10.3,10.4c0,1.5,0.3,2.9,0.9,4.1h0l0,0c0.2,0.4,0.4,0.8,0.6,1.2l8.8,16.9l0,0l0,0l8.8-16.9
		c0.2-0.4,0.4-0.8,0.6-1.2l0,0h0C193.7,281.7,194,280.3,194,278.8z M183.8,285c-3.5,0-6.4-2.9-6.4-6.4c0-3.5,2.9-6.4,6.4-6.4
		s6.4,2.9,6.4,6.4C190.2,282.1,187.3,285,183.8,285z"/>
	<path opacity="0.3" fill="#FFFFFF" d="M180.6,266.7c-1.9-5.3-7.8-8.1-13.2-6.2l0,0c0,0,0,0,0,0c0,0,0,0,0,0l0,0
		c-5.3,2-8,7.9-6.1,13.2c0.5,1.4,1.3,2.6,2.2,3.6l0,0l0,0c0.3,0.3,0.6,0.6,1,0.9l14,12.9l0,0l0,0l2.4-18.9c0.1-0.4,0.1-0.9,0.2-1.3
		l0,0l0,0C181.3,269.5,181.1,268,180.6,266.7z M173,275.9c-3.3,1.2-7-0.5-8.2-3.8c-1.2-3.3,0.5-7,3.8-8.2c3.3-1.2,7,0.5,8.2,3.8
		C178.1,271,176.4,274.7,173,275.9z"/>
	<path opacity="0.3" fill="#FFFFFF" d="M223.6,287.1c5-2.6,7-8.9,4.4-13.9l0,0c0,0,0,0,0,0c0,0,0,0,0,0l0,0c-2.7-5-8.9-6.9-13.9-4.3
		c-1.3,0.7-2.4,1.6-3.3,2.7l0,0l0,0c-0.3,0.4-0.5,0.7-0.8,1.1l-10.9,15.6l0,0l0,0l19.1-0.1c0.4,0,0.9,0,1.3,0l0,0l0,0
		C220.9,288.2,222.3,287.8,223.6,287.1z M213.4,280.9c-1.7-3.1-0.4-7,2.7-8.7c3.1-1.7,7-0.4,8.7,2.7c1.7,3.1,0.4,7-2.7,8.7
		C218.9,285.2,215,284,213.4,280.9z"/>
	<path opacity="0.3" fill="#FFFFFF" d="M235.5,225.7c3.2-4.7,1.9-11.1-2.8-14.3l0,0c0,0,0,0,0,0c0,0,0,0,0,0l0,0
		c-4.7-3.1-11.1-1.8-14.3,2.9c-0.8,1.2-1.3,2.6-1.6,3.9l0,0l0,0c-0.1,0.4-0.1,0.9-0.2,1.3l-2.1,18.9l0,0l0,0l16.7-9.2
		c0.4-0.2,0.8-0.4,1.2-0.6l0,0l0,0C233.7,228,234.7,227,235.5,225.7z M223.6,225.1c-2.9-2-3.7-6-1.8-8.9c2-2.9,6-3.7,8.9-1.8
		s3.7,6,1.8,8.9C230.5,226.3,226.5,227.1,223.6,225.1z"/>
	<path opacity="0.3" fill="#FFFFFF" d="M154.7,183.3c-1.9-5.3-7.8-8.1-13.2-6.2l0,0c0,0,0,0,0,0c0,0,0,0,0,0l0,0
		c-5.3,2-8.1,7.9-6.1,13.2c0.5,1.4,1.3,2.6,2.2,3.6l0,0l0,0c0.3,0.3,0.6,0.6,1,0.9l14,12.9l0,0l0,0l2.5-18.9
		c0.1-0.4,0.1-0.9,0.2-1.3l0,0l0,0C155.4,186.1,155.2,184.7,154.7,183.3z M147.1,192.6c-3.3,1.2-7-0.5-8.2-3.9
		c-1.2-3.3,0.5-7,3.9-8.2c3.3-1.2,7,0.5,8.2,3.9C152.2,187.7,150.5,191.4,147.1,192.6z"/>
	<path opacity="0.3" fill="#FFFFFF" d="M167,216.2c-3.6-4.4-10.1-5-14.5-1.4l0,0c0,0,0,0,0,0c0,0,0,0,0,0l0,0
		c-4.3,3.7-4.9,10.1-1.3,14.5c0.9,1.1,2.1,2,3.3,2.6l0,0l0,0c0.4,0.2,0.8,0.4,1.2,0.5l17.6,7.4l0,0l0,0l-4.1-18.6
		c-0.1-0.4-0.2-0.9-0.3-1.3l0,0l0,0C168.6,218.6,167.9,217.3,167,216.2z M163,227.5c-2.7,2.3-6.8,1.9-9.1-0.8
		c-2.3-2.7-1.9-6.8,0.8-9.1c2.7-2.3,6.8-1.9,9.1,0.8C166.1,221.1,165.7,225.2,163,227.5z"/>
	<path opacity="0.3" fill="#FFFFFF" d="M108.5,141.4c-3.5-4.5-9.9-5.3-14.5-1.9l0,0c0,0,0,0,0,0c0,0,0,0,0,0l0,0
		c-4.4,3.5-5.2,10-1.7,14.5c0.9,1.2,2,2.1,3.2,2.7l0,0l0,0c0.4,0.2,0.8,0.4,1.2,0.6l17.3,8l0,0l0,0l-3.5-18.7
		c-0.1-0.4-0.1-0.9-0.2-1.3l0,0l0,0C110.1,143.9,109.4,142.6,108.5,141.4z M104.2,152.6c-2.8,2.2-6.8,1.7-9-1.1
		c-2.2-2.8-1.7-6.8,1.1-9s6.8-1.7,9,1.1C107.5,146.4,107,150.4,104.2,152.6z"/>
	<path opacity="0.3" fill="#FFFFFF" d="M161,115.3c-2.3-5.2-8.4-7.5-13.6-5.3l0,0c0,0,0,0,0,0c0,0,0,0,0,0l0,0
		c-5.2,2.4-7.5,8.4-5.1,13.6c0.6,1.3,1.5,2.5,2.5,3.4l0,0l0,0c0.3,0.3,0.7,0.6,1.1,0.8l14.9,11.9l0,0l0,0l1.1-19
		c0.1-0.4,0.1-0.9,0.1-1.3l0,0l0,0C161.8,118.1,161.6,116.7,161,115.3z M154.1,125.1c-3.2,1.4-7,0-8.5-3.2c-1.4-3.2,0-7,3.2-8.5
		s7,0,8.5,3.2C158.8,119.9,157.3,123.7,154.1,125.1z"/>
	<path opacity="0.3" fill="#FFFFFF" d="M239.4,140.4c2.2-5.2-0.2-11.3-5.4-13.5l0,0c0,0,0,0,0,0c0,0,0,0,0,0l0,0
		c-5.3-2.1-11.3,0.3-13.5,5.6c-0.6,1.4-0.8,2.8-0.8,4.1l0,0l0,0c0,0.5,0,0.9,0.1,1.3l1.5,19l0,0l0,0l14.6-12.2
		c0.4-0.3,0.7-0.6,1-0.9l0,0l0,0C238,142.9,238.8,141.7,239.4,140.4z M227.5,142.1c-3.3-1.4-4.8-5.1-3.4-8.4
		c1.4-3.3,5.1-4.8,8.4-3.4c3.3,1.4,4.8,5.1,3.4,8.4C234.6,141.9,230.8,143.4,227.5,142.1z"/>
	<path opacity="0.3" fill="#FFFFFF" d="M265.1,351c3.6-4.4,3-10.9-1.3-14.5l0,0c0,0,0,0,0,0c0,0,0,0,0,0l0,0
		c-4.4-3.6-10.9-2.9-14.5,1.5c-0.9,1.1-1.6,2.4-2,3.7l0,0l0,0c-0.1,0.4-0.2,0.9-0.3,1.3l-4,18.6l0,0l0,0l17.5-7.5
		c0.4-0.1,0.8-0.3,1.2-0.5l0,0l0,0C263.1,353,264.2,352.1,265.1,351z M253.3,349.2c-2.7-2.3-3.1-6.3-0.9-9c2.3-2.7,6.3-3.1,9-0.9
		c2.7,2.3,3.1,6.3,0.9,9C260.1,351,256.1,351.4,253.3,349.2z"/>
	<path opacity="0.3" fill="#FFFFFF" d="M305,173.2c4.3-3.8,4.7-10.3,0.9-14.5l0,0c0,0,0,0,0,0c0,0,0,0,0,0l0,0
		c-3.8-4.2-10.3-4.6-14.5-0.8c-1.1,1-1.9,2.1-2.5,3.4l0,0l0,0c-0.2,0.4-0.4,0.8-0.5,1.3l-6.8,17.8l0,0l0,0l18.5-4.7
		c0.4-0.1,0.9-0.2,1.3-0.3l0,0l0,0C302.7,174.9,303.9,174.2,305,173.2z M293.6,169.6c-2.4-2.7-2.1-6.7,0.5-9.1
		c2.7-2.4,6.7-2.1,9.1,0.5c2.4,2.7,2.1,6.7-0.5,9.1C300,172.5,296,172.3,293.6,169.6z"/>
	<path opacity="0.3" fill="#FFFFFF" d="M360.8,212.3c5.2-2.2,7.7-8.2,5.6-13.4l0,0c0,0,0,0,0,0c0,0,0,0,0,0l0,0
		c-2.2-5.2-8.3-7.7-13.5-5.5c-1.4,0.6-2.5,1.4-3.5,2.4l0,0l0,0c-0.3,0.3-0.6,0.7-0.9,1l-12.3,14.6l0,0l0,0l19,1.6
		c0.4,0.1,0.9,0.1,1.3,0.1l0,0l0,0C358,213.2,359.5,212.9,360.8,212.3z M351.2,205.2c-1.4-3.3,0.2-7,3.5-8.4c3.3-1.4,7,0.2,8.4,3.5
		c1.4,3.3-0.2,7-3.5,8.4C356.3,210,352.6,208.5,351.2,205.2z"/>
	<path opacity="0.3" fill="#FFFFFF" d="M92.6,178c-5.6-1.1-11,2.5-12.1,8.1l0,0c0,0,0,0,0,0c0,0,0,0,0,0l0,0c-1,5.6,2.6,11,8.2,12.1
		c1.4,0.3,2.9,0.3,4.2,0l0,0l0,0c0.4-0.1,0.9-0.2,1.3-0.4l18.3-5.3l0,0l0,0l-14.9-11.9c-0.3-0.3-0.7-0.6-1.1-0.8l0,0l0,0
		C95.3,178.8,94,178.3,92.6,178z M96.6,189.2c-0.7,3.5-4.1,5.7-7.5,5.1c-3.5-0.7-5.7-4.1-5.1-7.5c0.7-3.5,4.1-5.7,7.5-5.1
		C95,182.4,97.3,185.7,96.6,189.2z"/>
	<path opacity="0.3" fill="#FFFFFF" d="M35,134.3c-5.2-2.3-11.3,0.1-13.6,5.2l0,0c0,0,0,0,0,0c0,0,0,0,0,0l0,0
		c-2.2,5.2,0.2,11.3,5.4,13.5c1.3,0.6,2.8,0.9,4.1,0.9l0,0l0,0c0.5,0,0.9,0,1.3-0.1l19-1.2l0,0l0,0l-12-14.8c-0.3-0.4-0.5-0.7-0.8-1
		l0,0l0,0C37.5,135.7,36.4,134.8,35,134.3z M36.5,146.1c-1.4,3.3-5.2,4.7-8.5,3.3c-3.3-1.4-4.7-5.2-3.3-8.5c1.4-3.3,5.2-4.7,8.5-3.3
		C36.5,139.1,38,142.9,36.5,146.1z"/>
	<path opacity="0.3" fill="#FFFFFF" d="M113.9,7.9c-1.3-5.5-6.9-8.9-12.4-7.6l0,0c0,0,0,0,0,0c0,0,0,0,0,0l0,0
		c-5.5,1.4-8.9,7-7.5,12.5c0.3,1.4,1,2.7,1.8,3.8l0,0l0,0c0.3,0.4,0.6,0.7,0.9,1L109.2,32l0,0l0,0l4.5-18.5c0.1-0.4,0.2-0.9,0.3-1.3
		l0,0l0,0C114.3,10.8,114.3,9.3,113.9,7.9z M105.4,16.3c-3.4,0.8-6.9-1.3-7.8-4.7c-0.8-3.4,1.3-6.9,4.7-7.8s6.9,1.3,7.8,4.7
		C111,12,108.8,15.5,105.4,16.3z"/>
	<path opacity="0.3" fill="#FFFFFF" d="M249.1,46.6c1.7-5.4-1.3-11.2-6.7-12.9l0,0c0,0,0,0,0,0c0,0,0,0,0,0l0,0
		c-5.4-1.6-11.2,1.4-12.9,6.8c-0.4,1.4-0.6,2.8-0.4,4.2l0,0l0,0c0,0.4,0.1,0.9,0.2,1.3l3.3,18.8l0,0l0,0L246,51.2
		c0.3-0.3,0.7-0.6,0.9-1l0,0l0,0C247.9,49.2,248.6,48,249.1,46.6z M237.4,49.4c-3.4-1.1-5.3-4.7-4.2-8c1.1-3.4,4.7-5.3,8-4.2
		c3.4,1.1,5.3,4.7,4.2,8C244.4,48.5,240.8,50.4,237.4,49.4z"/>
	<path opacity="0.3" fill="#FFFFFF" d="M317.8,67.9c3.1-4.8,1.7-11.1-3.1-14.2l0,0c0,0,0,0,0,0c0,0,0,0,0,0l0,0
		c-4.8-3-11.2-1.6-14.2,3.2c-0.8,1.2-1.3,2.6-1.5,4l0,0l0,0c-0.1,0.4-0.1,0.9-0.1,1.3l-1.7,19l0,0l0,0l16.5-9.5
		c0.4-0.2,0.8-0.4,1.2-0.7l0,0l0,0C316,70.1,317.1,69.1,317.8,67.9z M305.9,67.5c-3-1.9-3.9-5.9-2-8.9c1.9-3,5.9-3.9,8.9-2
		c3,1.9,3.9,5.9,2,8.9C312.9,68.5,308.9,69.4,305.9,67.5z"/>
	<path opacity="0.3" fill="#FFFFFF" d="M271.8,222.9c3.1-4.8,1.7-11.1-3.1-14.2l0,0c0,0,0,0,0,0c0,0,0,0,0,0l0,0
		c-4.8-3-11.2-1.6-14.2,3.2c-0.8,1.2-1.3,2.6-1.5,4l0,0l0,0c-0.1,0.4-0.1,0.9-0.1,1.3l-1.7,19l0,0l0,0l16.5-9.5
		c0.4-0.2,0.8-0.4,1.2-0.7l0,0l0,0C270,225.1,271,224.1,271.8,222.9z M259.8,222.5c-3-1.9-3.9-5.9-2-8.9c1.9-3,5.9-3.9,8.9-2
		c3,1.9,3.9,5.9,2,8.9C266.8,223.5,262.8,224.4,259.8,222.5z"/>
	<path opacity="0.3" fill="#FFFFFF" d="M222.7,193.8c2.2-5.2-0.2-11.3-5.4-13.5l0,0c0,0,0,0,0,0c0,0,0,0,0,0l0,0
		c-5.2-2.2-11.3,0.3-13.5,5.5c-0.6,1.4-0.8,2.8-0.8,4.1l0,0l0,0c0,0.5,0,0.9,0.1,1.3l1.4,19l0,0l0,0l14.7-12.1
		c0.4-0.3,0.7-0.5,1-0.9l0,0l0,0C221.3,196.4,222.1,195.2,222.7,193.8z M210.8,195.5c-3.3-1.4-4.8-5.2-3.4-8.4
		c1.4-3.3,5.2-4.8,8.4-3.4c3.3,1.4,4.8,5.2,3.4,8.4C217.8,195.3,214.1,196.8,210.8,195.5z"/>
	<path opacity="0.3" fill="#FFFFFF" d="M150.1,193.6c-1.8-5.4-7.6-8.3-13-6.6l0,0c0,0,0,0,0,0c0,0,0,0,0,0l0,0
		c-5.4,1.8-8.2,7.7-6.4,13.1c0.5,1.4,1.2,2.6,2.1,3.7l0,0l0,0c0.3,0.3,0.6,0.6,1,0.9l13.7,13.3l0,0l0,0l2.9-18.8
		c0.1-0.4,0.2-0.9,0.2-1.3l0,0l0,0C150.7,196.4,150.5,195,150.1,193.6z M142.3,202.7c-3.4,1.1-7-0.7-8.1-4.1c-1.1-3.4,0.7-7,4.1-8.1
		s7,0.7,8.1,4.1C147.5,197.9,145.6,201.5,142.3,202.7z"/>
	<path opacity="0.3" fill="#FFFFFF" d="M119.7,82.7c-1.8-5.4-7.6-8.3-13-6.6l0,0c0,0,0,0,0,0c0,0,0,0,0,0l0,0
		c-5.4,1.8-8.2,7.7-6.4,13.1c0.5,1.4,1.2,2.6,2.1,3.7l0,0l0,0c0.3,0.3,0.6,0.6,1,0.9l13.7,13.3l0,0l0,0l2.9-18.8
		c0.1-0.4,0.2-0.9,0.2-1.3l0,0l0,0C120.4,85.5,120.2,84.1,119.7,82.7z M112,91.8c-3.4,1.1-7-0.7-8.1-4.1c-1.1-3.4,0.7-7,4.1-8.1
		c3.4-1.1,7,0.7,8.1,4.1C117.1,87,115.3,90.7,112,91.8z"/>
	<path opacity="0.3" fill="#FFFFFF" d="M37.2,97c-4.3-3.8-10.8-3.3-14.5,0.9l0,0c0,0,0,0,0,0c0,0,0,0,0,0l0,0
		c-3.7,4.3-3.3,10.8,1,14.5c1.1,1,2.4,1.7,3.7,2.1l0,0l0,0c0.4,0.1,0.9,0.2,1.3,0.3l18.5,4.6l0,0l0,0l-6.9-17.8
		c-0.1-0.4-0.3-0.8-0.5-1.3l0,0l0,0C39.1,99.1,38.3,97.9,37.2,97z M35,108.7c-2.3,2.7-6.4,2.9-9.1,0.6c-2.7-2.3-2.9-6.4-0.6-9.1
		s6.4-2.9,9.1-0.6C37.1,102,37.4,106.1,35,108.7z"/>
	<path opacity="0.3" fill="#FFFFFF" d="M173,107.2c-0.5-5.7-5.5-9.9-11.1-9.4l0,0c0,0,0,0,0,0c0,0,0,0,0,0l0,0
		c-5.6,0.5-9.8,5.5-9.3,11.2c0.1,1.5,0.6,2.8,1.2,4l0,0l0,0c0.2,0.4,0.5,0.8,0.7,1.1l10.2,16.1l0,0l0,0l7.3-17.6
		c0.2-0.4,0.4-0.8,0.5-1.2l0,0l0,0C173,110.1,173.1,108.6,173,107.2z M163.3,114.2c-3.5,0.3-6.7-2.3-7-5.8c-0.3-3.5,2.3-6.7,5.8-7
		c3.5-0.3,6.7,2.3,7,5.8C169.5,110.8,166.9,113.9,163.3,114.2z"/>
	<path opacity="0.3" fill="#FFFFFF" d="M308.6,162.8c3.9-4.2,3.6-10.7-0.5-14.6l0,0c0,0,0,0,0,0c0,0,0,0,0,0l0,0
		c-4.2-3.8-10.7-3.6-14.6,0.6c-1,1.1-1.7,2.3-2.2,3.6l0,0l0,0c-0.1,0.4-0.3,0.9-0.4,1.3l-5.1,18.4l0,0l0,0l17.9-6.4
		c0.4-0.1,0.9-0.3,1.3-0.5l0,0l0,0C306.4,164.7,307.5,163.9,308.6,162.8z M296.8,160.3c-2.6-2.4-2.8-6.5-0.3-9.1
		c2.4-2.6,6.5-2.8,9.1-0.3c2.6,2.4,2.8,6.5,0.3,9.1C303.5,162.6,299.4,162.8,296.8,160.3z"/>
	<path opacity="0.3" fill="#FFFFFF" d="M330.2,199.5c4.3-3.7,4.7-10.2,1.1-14.5l0,0c0,0,0,0,0,0c0,0,0,0,0,0l0,0
		c-3.8-4.2-10.3-4.7-14.5-0.9c-1.1,1-2,2.1-2.6,3.4l0,0l0,0c-0.2,0.4-0.4,0.8-0.5,1.3l-7,17.7l0,0l0,0l18.5-4.5
		c0.4-0.1,0.9-0.2,1.3-0.3l0,0l0,0C327.8,201.2,329.1,200.5,330.2,199.5z M318.8,195.8c-2.3-2.7-2.1-6.7,0.6-9.1
		c2.7-2.3,6.7-2.1,9.1,0.6s2.1,6.7-0.6,9.1C325.2,198.8,321.1,198.5,318.8,195.8z"/>
	<path opacity="0.3" fill="#FFFFFF" d="M225.4,92.6c2.2-5.2-0.2-11.3-5.4-13.5l0,0c0,0,0,0,0,0c0,0,0,0,0,0l0,0
		c-5.2-2.1-11.3,0.3-13.5,5.6c-0.6,1.4-0.8,2.8-0.8,4.1l0,0l0,0c0,0.5,0,0.9,0.1,1.3l1.5,19l0,0l0,0l14.6-12.2
		c0.4-0.3,0.7-0.6,1-0.9l0,0l0,0C224,95.1,224.8,93.9,225.4,92.6z M213.5,94.2c-3.3-1.4-4.8-5.1-3.4-8.4c1.4-3.3,5.1-4.8,8.4-3.4
		s4.8,5.1,3.4,8.4C220.6,94.1,216.8,95.6,213.5,94.2z"/>
	<path opacity="0.3" fill="#FFFFFF" d="M40.3,85.8c-3-4.8-9.3-6.4-14.1-3.5l0,0c0,0,0,0,0,0c0,0,0,0,0,0l0,0
		c-4.8,3-6.3,9.3-3.3,14.2c0.8,1.3,1.8,2.3,2.9,3.1l0,0l0,0c0.4,0.3,0.8,0.5,1.2,0.7l16.3,9.9l0,0l0,0l-1.4-19c0-0.4,0-0.9-0.1-1.3
		l0,0l0,0C41.6,88.5,41.1,87.1,40.3,85.8z M34.8,96.4c-3,1.9-7,0.9-8.8-2.1c-1.9-3-0.9-7,2.1-8.8s7-0.9,8.8,2.1
		C38.8,90.6,37.8,94.6,34.8,96.4z"/>
	<path opacity="0.3" fill="#FFFFFF" d="M19,53.9c-3-4.8-9.3-6.4-14.1-3.5l0,0c0,0,0,0,0,0c0,0,0,0,0,0l0,0c-4.8,3-6.3,9.3-3.3,14.2
		c0.8,1.3,1.8,2.3,2.9,3.1l0,0l0,0c0.4,0.3,0.8,0.5,1.2,0.7l16.3,9.9l0,0l0,0l-1.4-19c0-0.4,0-0.9-0.1-1.3l0,0l0,0
		C20.3,56.5,19.8,55.1,19,53.9z M13.5,64.5c-3,1.9-7,0.9-8.8-2.1c-1.9-3-0.9-7,2.1-8.8c3-1.9,7-0.9,8.8,2.1
		C17.5,58.6,16.5,62.6,13.5,64.5z"/>
	<path opacity="0.3" fill="#FFFFFF" d="M247.9,305.1c0-35.6-28.7-64.5-64.3-64.9v0c0,0-0.1,0-0.1,0c0,0-0.1,0-0.1,0v0
		c-35.6,0.3-64.3,29.2-64.3,64.9c0,9.2,1.9,18,5.4,25.9h0l0,0.1c1.1,2.6,2.4,5.1,3.9,7.5l55,106.1l0.1,0.2l0.1-0.2l55-106.1
		c1.5-2.4,2.7-4.9,3.9-7.5l0-0.1h0C246,323.1,247.9,314.3,247.9,305.1z M183.6,343.6c-22.2,0-40.3-18-40.3-40.3
		c0-22.2,18-40.3,40.3-40.3s40.3,18,40.3,40.3C223.8,325.5,205.8,343.6,183.6,343.6z"/>
</g>
</svg>
