<?xml version="1.0" encoding="utf-8"?>
<!-- Generator: Adobe Illustrator 18.1.0, SVG Export Plug-In . SVG Version: 6.00 Build 0)  -->
<!DOCTYPE svg PUBLIC "-//W3C//DTD SVG 1.1//EN" "http://www.w3.org/Graphics/SVG/1.1/DTD/svg11.dtd">
<svg version="1.1" id="Layer_1" xmlns="http://www.w3.org/2000/svg" xmlns:xlink="http://www.w3.org/1999/xlink" x="0px" y="0px"
	 viewBox="31.8 18.9 670.4 431.3" enable-background="new 31.8 18.9 670.4 431.3" xml:space="preserve">
<polygon opacity="0.3" fill="#FFFFFF" enable-background="new    " points="136.5,18.9 161.3,95 241.2,95 176.6,142 201.3,218.1 
	136.5,171.1 71.9,218.1 96.6,142 31.8,95 111.8,95 "/>
<polygon opacity="0.3" fill="#FFFFFF" enable-background="new    " points="367.1,18.9 391.8,95 471.8,95 407.1,142 431.8,218.1 
	367.1,171.1 302.4,218.1 327.1,142 262.4,95 342.3,95 "/>
<polygon opacity="0.3" fill="#FFFFFF" enable-background="new    " points="597.6,18.9 622.3,95 702.3,95 637.6,142 662.4,218.1 
	597.6,171.1 532.9,218.1 557.7,142 492.9,95 572.9,95 "/>
<polygon opacity="0.3" fill="#FFFFFF" enable-background="new    " points="136.5,251 161.3,327.1 241.2,327.1 176.6,374.1 
	201.3,450.2 136.5,403.2 71.9,450.2 96.6,374.1 31.8,327.1 111.8,327.1 "/>
<polygon opacity="0.3" fill="#FFFFFF" enable-background="new    " points="367.1,251 391.8,327.1 471.8,327.1 407.1,374.1 
	431.8,450.2 367.1,403.2 302.4,450.2 327.1,374.1 262.4,327.1 342.3,327.1 "/>
<polygon opacity="0.3" fill="#FFFFFF" enable-background="new    " points="597.6,251 622.3,327.1 702.3,327.1 637.6,374.1 
	662.4,450.2 597.6,403.2 532.9,450.2 557.7,374.1 492.9,327.1 572.9,327.1 "/>
</svg>
